<mxfile host="Electron" modified="2023-09-16T03:38:15.885Z" agent="Mozilla/5.0 (Macintosh; Intel Mac OS X 10_15_7) AppleWebKit/537.36 (KHTML, like Gecko) draw.io/21.6.8 Chrome/114.0.5735.289 Electron/25.5.0 Safari/537.36" etag="NeoGupzwRHf6QsdSdhLJ" version="21.6.8" type="device">
  <diagram name="페이지-1" id="iwoa7FvK_BxokUGhvC6e">
    <mxGraphModel dx="1710" dy="1155" grid="0" gridSize="10" guides="1" tooltips="1" connect="1" arrows="1" fold="1" page="0" pageScale="1" pageWidth="827" pageHeight="1169" math="0" shadow="0">
      <root>
        <mxCell id="0" />
        <mxCell id="1" parent="0" />
        <mxCell id="GygV4am77YOdZEN7_f4k-156" value="" style="whiteSpace=wrap;html=1;" parent="1" vertex="1">
          <mxGeometry x="1070" y="701" width="400" height="239" as="geometry" />
        </mxCell>
        <mxCell id="GygV4am77YOdZEN7_f4k-153" value="" style="whiteSpace=wrap;html=1;" parent="1" vertex="1">
          <mxGeometry x="700" y="700" width="290" height="240" as="geometry" />
        </mxCell>
        <mxCell id="GygV4am77YOdZEN7_f4k-48" value="" style="rounded=0;whiteSpace=wrap;html=1;dashed=1;" parent="1" vertex="1">
          <mxGeometry x="199" y="420" width="161" height="70" as="geometry" />
        </mxCell>
        <mxCell id="GygV4am77YOdZEN7_f4k-63" style="edgeStyle=orthogonalEdgeStyle;rounded=0;orthogonalLoop=1;jettySize=auto;html=1;" parent="1" source="GygV4am77YOdZEN7_f4k-6" target="GygV4am77YOdZEN7_f4k-61" edge="1">
          <mxGeometry relative="1" as="geometry">
            <Array as="points">
              <mxPoint x="444" y="300" />
              <mxPoint x="444" y="300" />
            </Array>
          </mxGeometry>
        </mxCell>
        <mxCell id="GygV4am77YOdZEN7_f4k-6" value="" style="rounded=0;whiteSpace=wrap;html=1;" parent="1" vertex="1">
          <mxGeometry x="180" y="310" width="420" height="60" as="geometry" />
        </mxCell>
        <mxCell id="GygV4am77YOdZEN7_f4k-2" value="Developer" style="text;html=1;align=center;verticalAlign=middle;resizable=0;points=[];autosize=1;strokeColor=none;fillColor=none;" parent="1" vertex="1">
          <mxGeometry x="60" y="360" width="80" height="30" as="geometry" />
        </mxCell>
        <mxCell id="GygV4am77YOdZEN7_f4k-13" value="" style="dashed=0;outlineConnect=0;html=1;align=center;labelPosition=center;verticalLabelPosition=bottom;verticalAlign=top;shape=mxgraph.webicons.github;gradientColor=#DFDEDE" parent="1" vertex="1">
          <mxGeometry x="160" y="285" width="40" height="40" as="geometry" />
        </mxCell>
        <mxCell id="GygV4am77YOdZEN7_f4k-15" value="" style="verticalLabelPosition=bottom;html=1;verticalAlign=top;align=center;strokeColor=none;fillColor=#00BEF2;shape=mxgraph.azure.git_repository;" parent="1" vertex="1">
          <mxGeometry x="219" y="320" width="30" height="30" as="geometry" />
        </mxCell>
        <mxCell id="GygV4am77YOdZEN7_f4k-31" style="edgeStyle=orthogonalEdgeStyle;rounded=0;orthogonalLoop=1;jettySize=auto;html=1;entryX=0.5;entryY=0;entryDx=0;entryDy=0;" parent="1" source="GygV4am77YOdZEN7_f4k-16" edge="1">
          <mxGeometry relative="1" as="geometry">
            <mxPoint x="234" y="420" as="targetPoint" />
          </mxGeometry>
        </mxCell>
        <mxCell id="GygV4am77YOdZEN7_f4k-16" value="Go App" style="text;html=1;align=center;verticalAlign=middle;resizable=0;points=[];autosize=1;strokeColor=none;fillColor=none;" parent="1" vertex="1">
          <mxGeometry x="204" y="345" width="60" height="30" as="geometry" />
        </mxCell>
        <mxCell id="GygV4am77YOdZEN7_f4k-17" value="" style="verticalLabelPosition=bottom;html=1;verticalAlign=top;align=center;strokeColor=none;fillColor=#00BEF2;shape=mxgraph.azure.git_repository;" parent="1" vertex="1">
          <mxGeometry x="307" y="320" width="30" height="30" as="geometry" />
        </mxCell>
        <mxCell id="GygV4am77YOdZEN7_f4k-35" style="edgeStyle=orthogonalEdgeStyle;rounded=0;orthogonalLoop=1;jettySize=auto;html=1;entryX=0.5;entryY=0;entryDx=0;entryDy=0;" parent="1" source="GygV4am77YOdZEN7_f4k-18" edge="1">
          <mxGeometry relative="1" as="geometry">
            <mxPoint x="323" y="420" as="targetPoint" />
          </mxGeometry>
        </mxCell>
        <mxCell id="GygV4am77YOdZEN7_f4k-18" value="Spring App" style="text;html=1;align=center;verticalAlign=middle;resizable=0;points=[];autosize=1;strokeColor=none;fillColor=none;" parent="1" vertex="1">
          <mxGeometry x="283" y="345" width="80" height="30" as="geometry" />
        </mxCell>
        <mxCell id="GygV4am77YOdZEN7_f4k-22" style="edgeStyle=orthogonalEdgeStyle;rounded=0;orthogonalLoop=1;jettySize=auto;html=1;entryX=0;entryY=0.5;entryDx=0;entryDy=0;" parent="1" source="GygV4am77YOdZEN7_f4k-20" target="GygV4am77YOdZEN7_f4k-6" edge="1">
          <mxGeometry relative="1" as="geometry" />
        </mxCell>
        <mxCell id="GygV4am77YOdZEN7_f4k-20" value="" style="shape=image;html=1;verticalAlign=top;verticalLabelPosition=bottom;labelBackgroundColor=#ffffff;imageAspect=0;aspect=fixed;image=https://cdn4.iconfinder.com/data/icons/essential-app-2/16/user-avatar-human-admin-login-128.png" parent="1" vertex="1">
          <mxGeometry x="80" y="320" width="40" height="40" as="geometry" />
        </mxCell>
        <mxCell id="GygV4am77YOdZEN7_f4k-23" value="" style="shape=image;imageAspect=0;aspect=fixed;verticalLabelPosition=bottom;verticalAlign=top;image=data:image/png,iVBORw0KGgoAAAANSUhEUgAAAMgAAADICAMAAACahl6sAAAAnFBMVEX///8giP95uP8jiv+muc/z9fZ0tf/7/PxYpv8qjv8njP9UpP+avOM1k/9Knv/a4utDm/+QteDK3PBmrf/s7vCIsN7w8fM/mf9tsf/Z3eLT3ed9qdutv9Nfqv/L1+OpxufAzt21xdfk5+qBvP+Xrse2ws+Ior+70uySxf+dy/+0zeqvx+CZyf+lxOap0v+IwP92pNmquMfW4u+err+zUKtmAAAN90lEQVR4nO1d2WLiOgxlSylQoBQoexoCtGUo7czc//+3GxbLsi1vwRAe5jxCUHQSSZZl2ZRKFkTxerXojMoHtEePlfflwPaTO0Q8bFXLCkYP86hozXwwnbVVEmc0+8t60fq5oT7vaFmc0O6lRStpR/1tZKFxfC2ze6eSPDvQOKDRu2dnSfuONA54TopWV4tfDQ8eGWb3+VKi34QBtR7e17UM75UFEcg6k6KVJpDKsaoxrnWFKwbLmRwIGh8FaavHRHzg1f6StBt5hKnub62oBS+CfqboGu3F1/J0Qy3teMFuXrUMEvV9+16ZCHbVmlqvf53dJ5MU8aj2nDKpBFP/dW0FHRGheNWOHX80WKDYZX+HNwEaPzruKVQdmdfo9YrqOeMXcg+vofqJ/7B/LeU8kDZy8hCYvF1HOR/wPLHjnToNuW8VPgtOuC6Cf6S9VqPc7s/NMWwMv65cVUs76jD/qArx6okZ3Cgx/RwFvIIj1xso0sMf4wHvwWQ10ya7bHFlTc2oQ97UwjaEvPhgcyZP5pe6jkBXwRwMC1tG2iyLeOxqJdTBuAoNwaDFDH86LMto6hMXiBZVPdurYwqKChGLKgc9ay0HcpXh9RXWAXxaeCElosSY4bcmD4Gn0b6BxhqwFLYqplhMs47IqK3JclvsgsLcPdb4Kfu4Nm0JTMoLMqeEiDGjvr0FwKmX4udApFR/EitEjSfC6SMYPG+jtgr2vBtSksWJqDW7DjGCQ6JSUNyKmAuMpS8wkSzNl+omalluyb6b30JtFbGoMIf0+etMdPqRXMx6LdhJ1jqLUAjG0sjSl5yeff14A60JrJiLyF+ob6reE7OW9ovwgwr7+PpKU2BDckv+gjK5dCEwEesN8G6LqWozg3iQv6B9501w+g6Ow0udkd4GLIV/l7+giZReHzATPPZAlpJcVWEd2N3Xui/kaCasZ+FsoHsfRBR9tV+UoiFEYuzYdf0vboEcRLKHD5HY9RfXRx4i/JVUHX9xA+Qg8sHXRjro4wEVAW4HFk5do5aYQOJ0pGBnZ09Xqa3RRMSUXqhWwLy9mOLW4/nuSkWKJCLlW0J+WGOfFlM41WZIBBE5Axbr3Wzur2Rtt8G77jmqRKQ5SbkiJlUsD+uUCsGSqSXHGpmIlDAq9eA6cx55hnYjQNCU50MiETmFbw7lHBdmaEqycyOwsCUXDQQisdQvRJRPoYhRVEW+olEAERk8iDTIgjZ7IAX5ur4gxYm8yU5OVRvBsgpykSxxYsbfFq2eKTaU6nMdupQIL62gIkoJrR+KrTFlErqKPCxCNItr31oyJUeCjmSLKV0uLaFKeGGWlUVWUFl4JWOVhq6AjVeFkmura0APFMVenMg0qjN9awN4SEHD+gn8cQqBSxrJqXovAyddbM8AX75N0Ke4XYiuwDNEMNMaFdufzRs4hN4F1OAol0dF8PGy6CYO8JLyAj/S+tPppbQS46/33PyuqqUDIp5KSeP7dF6z7bN44ZOUQlfZj0Ahyrenb9rQPYRCMMvLZMpDwugeerJxJ6DPUjnqTK3eRy/gBFVHxs6Pdo8m8ffSZ/qBdDINfggRnqf8vrJ+7tgjrZqm8Y8hwd3YizvaqiT0NXUSy9WpMG307YS8LsQOrb7JvtJZ8355yEzKLd02vfhBrKks7oyHup2nMV7KuXs9HsobSH7fkX8wTNXtbp3KejntZroOuklttlB2LlXvJe6KePXZKnbAiHalwXK2eD6O+u3OuJdcYnt5RcnVHzPIvWLdodx/11zU8rXOXyJqUCm7gqwNLVvktc2Kfw5zqajpgvy9jBE1j0oMe2PHfr0EIUTFfbqnEaHzRgQruWYvwdCoejVR3aHJV5rjhPqRfTem867FgKJKsbLl8ITGmB4p6zPycunHTrsWA4o6oSttB290xmudo0VunuUy7gQUBYDcsLdMpqbpeyRHmM74vVarrYd92Uattw8oiiBiWYmqP+IbVBdzRLrbe/a5fUBRFBFL/z6uFVcflOCYYOWqZuMOKIoi0jSOpzhxpvc14EXhhingBBRFEjG+xSkfdrQeiHctdvSDQEBRGiJtfbrGN5CUGy/aq/BWjp7umoCiRKAZrf6VcGswbxDl1zV1KUZAUSIQkYaulP0Ko3DT8BAP4A9Ss7QVUJQEXGPQlUp4EdxajufGTT/vgKIkCMUSuggZQRCxP5sBXEtuWgwoSobYLEC6CSzVNxw6nGBXMBnOA4qSIXU9UEwWpi8PqD8tnvtsDgbDGdX7GFCUhQhRMhmwwK+Lz9HxhuyIC1jCIHZfBhRlJaIWhsEcNGV8lgKyXXUsWSJ6CwKKshMpV3+LYRim+HQ856nsOe2EwJQo1wYU5UBEnh+yoZheQUQp+bmTFdpR1SE5oCgnIhna43XSPYHZNbnyhqcWrN+GhU01nw4oSkvk0Tr5hL6gaQKxE98cHNheA/QW5bCeDETQoEvjHBSPLbXnRS988wbUwNRtwBeLcthGxImUPsyFjZODdk8XHRcahJvz1GmtEXCJKC8illKTeH12e83NeatzQFF+RNTeX/XuMKVuDTQ3dybiI8qXSCl60lI5uSWfF6HFIHGKZCfiL8qbSJbtLDXl1JNhUxVwaar3TlxyoSiH3laFSIZoXumoZE693Kn6xuQpK9Gcd6mo53xEDqh3k3ntCHaT8+g6kW+vTL1h/K7JyC3KIWvUEeEYScKk2ys313axBxWVgwgbXSEFFW6vlkIgxVX3MAUUlYMIDEowvUG3J0o6MBipk8CAonIQgRSUJzxwe+LmkGQS+VFAUTmIgGWXE/n2baKeCek0NXkKKCoHEcgm0YOZHOLJM3FzeIrk5CmgqBxEUhCISwbxnGxxhIKBsvE8sCgZDkT4CGc/UY9XOulAE1CUBBcivID+bKkC8JZUjX8GFCXBhQiaD5sbnlBLanJ9UbRgIxHHw/hQK6c2pwgoSoQTEXRoWvlZa9xvPBvXFvaDihLgRgQXFBp0uXOAk17TgaEBReUgEuHFVqIhMhJ2KxtzvICichCREtVOTbBvqR/E0pIaUFQOIqVYrLE0F71lN8vl0ng+k7p8rK2cAUXlIFKKHTvWHG4eUFQOIqWJ08H5YxdjCCgqB5FSZC+GuvbBBBSVg0gW3y1dVo5d94FF5SBSSh8MrXfGLWfXFJWDSJYEjTX3b/d8G00DispB5HC6rtp5V13k+huZgKJyEMnQXfe5BtVOZZ7/aI5QovIROSCaHkp4yyTAeVshROUncmf4R+Te8I/IveEfkXvDfYwj3Xiz2STxJf8AVvjInv7Z/lQAn9+b243sAROkwQ6RYNhu8ohip7Y6n6wcMGWdfKssjvjZ+We/bAG46pb/B5xEDHQ0Dlh9+M5HYJnOaUIWcFr3sjLwOHiL5z+awVmrDgeAhZyzb800Dth5EamzKqu9ETdkFeXTzqNS+fYyL7YuJB9jrsC1GPVojzkTIlZR+PIJX7CsZ1kX0pQHuznKgxPJPba7OM3CVDrZ7D/zM4GzzMwjScjar/A+PsVRIxVHlq2HdYEOpogTshqPn/qnetNoh1+Yxz//QQuiaWko4KIGilcregeVMMJYdmcg8OVs/casgMtML+h1aK9CF63cM0l42m1dYhBw4W/A7cbkyX/5ZVtHGmhM1I4lAZdiv514CJHN/ewl7gC0+QdcHJ9wu7KI+suvdKBwQheMu0p6acB2BXghdtPfAZPEdimAN2FTTOgGEg3MDSQDUM5hx+cXGKH92jPQ5kDiL1uplh4tzC09Ox9zSYG1e+BCXqqeV0E0WRlgbLKCUdsp3Qc79MiD0UAhTyqItjcTTG1vqc8L8b78BLzFQNzTozYimmFoRPzDNNu4iYIkwKcgIfwrdXPGLVxpDbXA0BoKijmK2vjHrczhpQbq1tOZi9ysa4OhWZe5iOtgDUHO74BIZU9PezF7V9qnM0TxJhae6WCzQTGKap9+ncRxDA/Y2Xk/PZmfsTcelgKWcpxP/KDawDGoboGa2tA+kGbozkkHi1s+3n5ATJ8vcgJ75ue0bwUO+CI9NWWLQSTP0J3Hhf/OP1h5EpH+2UYEU5wNamAfzPIZU2XTx07iQZ66TQKM0ZeI+ndWHOwKZibsDdTlmKoQUUo/ztpcQKRUf9PYl45I6U6JZFguKK9nlvNxlg1pH9OT2Z6yVU0xLWcf+XMZkSw5eFrIf44KZ8vWT1npF9Q3znMg8Bll86Di7M7VUPYIfvISOdw9WT+0RogObOeM9qvKao8Gkkn2Tn54kUDdzimHX8cMhb9s3/BLwrjBlgK1wfY1zfDKiDjXeFhA/PbSWAPzlmcVhi3Pn54POGXM/erZGlg2oSswbEKHCYajt0OUCHL2s+1YABmGYwF8ky0IEkGO7rQe1CDCeOYDU+zHSVTMLvfMGXWwHp0hwHh0xtbrlUD1wTnKmRHwMBOwrZWDKF43zXeYpYKQJ9VA9cEeUAce1zoi4IE/PFuxVtn5IHpJQ4SAkKc58ZLuX7MoTjnYCwl6KNYH6LcyZlwo0Qz2QsKeeMYTyJXhnSAeQUZ1hoAHx/F6vF5HnGR+hj3/OeBRfnh28kWazQtaD/VYsHJDwMMVhR6Ub0XR+At/bwkJ/gh5cqagaWWLO7TSnTgJC+ogJ4Q8y1Rkcmg3+2+z2fzZbeWOiCvwCHu6rENLzdV4hD3vd+9AwxSeL0TAY5Nt7VqmVfgACHkmtsW8dlf+/4CAp5THhqYtNSqHR8Bz4xM5fN2QxgEBT/KXx43KYVwJNI9ywvEPEY6u3+70L/xvheRt+3l0/Z/P711Mi/ofoOTqlipG+BgAAAAASUVORK5CYII=;" parent="1" vertex="1">
          <mxGeometry x="214" y="430" width="40" height="40" as="geometry" />
        </mxCell>
        <mxCell id="GygV4am77YOdZEN7_f4k-27" value="Go CI" style="text;html=1;align=center;verticalAlign=middle;resizable=0;points=[];autosize=1;strokeColor=none;fillColor=none;" parent="1" vertex="1">
          <mxGeometry x="210" y="464" width="50" height="30" as="geometry" />
        </mxCell>
        <mxCell id="GygV4am77YOdZEN7_f4k-33" value="" style="shape=image;imageAspect=0;aspect=fixed;verticalLabelPosition=bottom;verticalAlign=top;image=data:image/png,iVBORw0KGgoAAAANSUhEUgAAAMgAAADICAMAAACahl6sAAAAnFBMVEX///8giP95uP8jiv+muc/z9fZ0tf/7/PxYpv8qjv8njP9UpP+avOM1k/9Knv/a4utDm/+QteDK3PBmrf/s7vCIsN7w8fM/mf9tsf/Z3eLT3ed9qdutv9Nfqv/L1+OpxufAzt21xdfk5+qBvP+Xrse2ws+Ior+70uySxf+dy/+0zeqvx+CZyf+lxOap0v+IwP92pNmquMfW4u+err+zUKtmAAAN90lEQVR4nO1d2WLiOgxlSylQoBQoexoCtGUo7czc//+3GxbLsi1vwRAe5jxCUHQSSZZl2ZRKFkTxerXojMoHtEePlfflwPaTO0Q8bFXLCkYP86hozXwwnbVVEmc0+8t60fq5oT7vaFmc0O6lRStpR/1tZKFxfC2ze6eSPDvQOKDRu2dnSfuONA54TopWV4tfDQ8eGWb3+VKi34QBtR7e17UM75UFEcg6k6KVJpDKsaoxrnWFKwbLmRwIGh8FaavHRHzg1f6StBt5hKnub62oBS+CfqboGu3F1/J0Qy3teMFuXrUMEvV9+16ZCHbVmlqvf53dJ5MU8aj2nDKpBFP/dW0FHRGheNWOHX80WKDYZX+HNwEaPzruKVQdmdfo9YrqOeMXcg+vofqJ/7B/LeU8kDZy8hCYvF1HOR/wPLHjnToNuW8VPgtOuC6Cf6S9VqPc7s/NMWwMv65cVUs76jD/qArx6okZ3Cgx/RwFvIIj1xso0sMf4wHvwWQ10ya7bHFlTc2oQ97UwjaEvPhgcyZP5pe6jkBXwRwMC1tG2iyLeOxqJdTBuAoNwaDFDH86LMto6hMXiBZVPdurYwqKChGLKgc9ay0HcpXh9RXWAXxaeCElosSY4bcmD4Gn0b6BxhqwFLYqplhMs47IqK3JclvsgsLcPdb4Kfu4Nm0JTMoLMqeEiDGjvr0FwKmX4udApFR/EitEjSfC6SMYPG+jtgr2vBtSksWJqDW7DjGCQ6JSUNyKmAuMpS8wkSzNl+omalluyb6b30JtFbGoMIf0+etMdPqRXMx6LdhJ1jqLUAjG0sjSl5yeff14A60JrJiLyF+ob6reE7OW9ovwgwr7+PpKU2BDckv+gjK5dCEwEesN8G6LqWozg3iQv6B9501w+g6Ow0udkd4GLIV/l7+giZReHzATPPZAlpJcVWEd2N3Xui/kaCasZ+FsoHsfRBR9tV+UoiFEYuzYdf0vboEcRLKHD5HY9RfXRx4i/JVUHX9xA+Qg8sHXRjro4wEVAW4HFk5do5aYQOJ0pGBnZ09Xqa3RRMSUXqhWwLy9mOLW4/nuSkWKJCLlW0J+WGOfFlM41WZIBBE5Axbr3Wzur2Rtt8G77jmqRKQ5SbkiJlUsD+uUCsGSqSXHGpmIlDAq9eA6cx55hnYjQNCU50MiETmFbw7lHBdmaEqycyOwsCUXDQQisdQvRJRPoYhRVEW+olEAERk8iDTIgjZ7IAX5ur4gxYm8yU5OVRvBsgpykSxxYsbfFq2eKTaU6nMdupQIL62gIkoJrR+KrTFlErqKPCxCNItr31oyJUeCjmSLKV0uLaFKeGGWlUVWUFl4JWOVhq6AjVeFkmura0APFMVenMg0qjN9awN4SEHD+gn8cQqBSxrJqXovAyddbM8AX75N0Ke4XYiuwDNEMNMaFdufzRs4hN4F1OAol0dF8PGy6CYO8JLyAj/S+tPppbQS46/33PyuqqUDIp5KSeP7dF6z7bN44ZOUQlfZj0Ahyrenb9rQPYRCMMvLZMpDwugeerJxJ6DPUjnqTK3eRy/gBFVHxs6Pdo8m8ffSZ/qBdDINfggRnqf8vrJ+7tgjrZqm8Y8hwd3YizvaqiT0NXUSy9WpMG307YS8LsQOrb7JvtJZ8355yEzKLd02vfhBrKks7oyHup2nMV7KuXs9HsobSH7fkX8wTNXtbp3KejntZroOuklttlB2LlXvJe6KePXZKnbAiHalwXK2eD6O+u3OuJdcYnt5RcnVHzPIvWLdodx/11zU8rXOXyJqUCm7gqwNLVvktc2Kfw5zqajpgvy9jBE1j0oMe2PHfr0EIUTFfbqnEaHzRgQruWYvwdCoejVR3aHJV5rjhPqRfTem867FgKJKsbLl8ITGmB4p6zPycunHTrsWA4o6oSttB290xmudo0VunuUy7gQUBYDcsLdMpqbpeyRHmM74vVarrYd92Uattw8oiiBiWYmqP+IbVBdzRLrbe/a5fUBRFBFL/z6uFVcflOCYYOWqZuMOKIoi0jSOpzhxpvc14EXhhingBBRFEjG+xSkfdrQeiHctdvSDQEBRGiJtfbrGN5CUGy/aq/BWjp7umoCiRKAZrf6VcGswbxDl1zV1KUZAUSIQkYaulP0Ko3DT8BAP4A9Ss7QVUJQEXGPQlUp4EdxajufGTT/vgKIkCMUSuggZQRCxP5sBXEtuWgwoSobYLEC6CSzVNxw6nGBXMBnOA4qSIXU9UEwWpi8PqD8tnvtsDgbDGdX7GFCUhQhRMhmwwK+Lz9HxhuyIC1jCIHZfBhRlJaIWhsEcNGV8lgKyXXUsWSJ6CwKKshMpV3+LYRim+HQ856nsOe2EwJQo1wYU5UBEnh+yoZheQUQp+bmTFdpR1SE5oCgnIhna43XSPYHZNbnyhqcWrN+GhU01nw4oSkvk0Tr5hL6gaQKxE98cHNheA/QW5bCeDETQoEvjHBSPLbXnRS988wbUwNRtwBeLcthGxImUPsyFjZODdk8XHRcahJvz1GmtEXCJKC8illKTeH12e83NeatzQFF+RNTeX/XuMKVuDTQ3dybiI8qXSCl60lI5uSWfF6HFIHGKZCfiL8qbSJbtLDXl1JNhUxVwaar3TlxyoSiH3laFSIZoXumoZE693Kn6xuQpK9Gcd6mo53xEDqh3k3ntCHaT8+g6kW+vTL1h/K7JyC3KIWvUEeEYScKk2ys313axBxWVgwgbXSEFFW6vlkIgxVX3MAUUlYMIDEowvUG3J0o6MBipk8CAonIQgRSUJzxwe+LmkGQS+VFAUTmIgGWXE/n2baKeCek0NXkKKCoHEcgm0YOZHOLJM3FzeIrk5CmgqBxEUhCISwbxnGxxhIKBsvE8sCgZDkT4CGc/UY9XOulAE1CUBBcivID+bKkC8JZUjX8GFCXBhQiaD5sbnlBLanJ9UbRgIxHHw/hQK6c2pwgoSoQTEXRoWvlZa9xvPBvXFvaDihLgRgQXFBp0uXOAk17TgaEBReUgEuHFVqIhMhJ2KxtzvICichCREtVOTbBvqR/E0pIaUFQOIqVYrLE0F71lN8vl0ng+k7p8rK2cAUXlIFKKHTvWHG4eUFQOIqWJ08H5YxdjCCgqB5FSZC+GuvbBBBSVg0gW3y1dVo5d94FF5SBSSh8MrXfGLWfXFJWDSJYEjTX3b/d8G00DispB5HC6rtp5V13k+huZgKJyEMnQXfe5BtVOZZ7/aI5QovIROSCaHkp4yyTAeVshROUncmf4R+Te8I/IveEfkXvDfYwj3Xiz2STxJf8AVvjInv7Z/lQAn9+b243sAROkwQ6RYNhu8ohip7Y6n6wcMGWdfKssjvjZ+We/bAG46pb/B5xEDHQ0Dlh9+M5HYJnOaUIWcFr3sjLwOHiL5z+awVmrDgeAhZyzb800Dth5EamzKqu9ETdkFeXTzqNS+fYyL7YuJB9jrsC1GPVojzkTIlZR+PIJX7CsZ1kX0pQHuznKgxPJPba7OM3CVDrZ7D/zM4GzzMwjScjar/A+PsVRIxVHlq2HdYEOpogTshqPn/qnetNoh1+Yxz//QQuiaWko4KIGilcregeVMMJYdmcg8OVs/casgMtML+h1aK9CF63cM0l42m1dYhBw4W/A7cbkyX/5ZVtHGmhM1I4lAZdiv514CJHN/ewl7gC0+QdcHJ9wu7KI+suvdKBwQheMu0p6acB2BXghdtPfAZPEdimAN2FTTOgGEg3MDSQDUM5hx+cXGKH92jPQ5kDiL1uplh4tzC09Ox9zSYG1e+BCXqqeV0E0WRlgbLKCUdsp3Qc79MiD0UAhTyqItjcTTG1vqc8L8b78BLzFQNzTozYimmFoRPzDNNu4iYIkwKcgIfwrdXPGLVxpDbXA0BoKijmK2vjHrczhpQbq1tOZi9ysa4OhWZe5iOtgDUHO74BIZU9PezF7V9qnM0TxJhae6WCzQTGKap9+ncRxDA/Y2Xk/PZmfsTcelgKWcpxP/KDawDGoboGa2tA+kGbozkkHi1s+3n5ATJ8vcgJ75ue0bwUO+CI9NWWLQSTP0J3Hhf/OP1h5EpH+2UYEU5wNamAfzPIZU2XTx07iQZ66TQKM0ZeI+ndWHOwKZibsDdTlmKoQUUo/ztpcQKRUf9PYl45I6U6JZFguKK9nlvNxlg1pH9OT2Z6yVU0xLWcf+XMZkSw5eFrIf44KZ8vWT1npF9Q3znMg8Bll86Di7M7VUPYIfvISOdw9WT+0RogObOeM9qvKao8Gkkn2Tn54kUDdzimHX8cMhb9s3/BLwrjBlgK1wfY1zfDKiDjXeFhA/PbSWAPzlmcVhi3Pn54POGXM/erZGlg2oSswbEKHCYajt0OUCHL2s+1YABmGYwF8ky0IEkGO7rQe1CDCeOYDU+zHSVTMLvfMGXWwHp0hwHh0xtbrlUD1wTnKmRHwMBOwrZWDKF43zXeYpYKQJ9VA9cEeUAce1zoi4IE/PFuxVtn5IHpJQ4SAkKc58ZLuX7MoTjnYCwl6KNYH6LcyZlwo0Qz2QsKeeMYTyJXhnSAeQUZ1hoAHx/F6vF5HnGR+hj3/OeBRfnh28kWazQtaD/VYsHJDwMMVhR6Ub0XR+At/bwkJ/gh5cqagaWWLO7TSnTgJC+ogJ4Q8y1Rkcmg3+2+z2fzZbeWOiCvwCHu6rENLzdV4hD3vd+9AwxSeL0TAY5Nt7VqmVfgACHkmtsW8dlf+/4CAp5THhqYtNSqHR8Bz4xM5fN2QxgEBT/KXx43KYVwJNI9ywvEPEY6u3+70L/xvheRt+3l0/Z/P711Mi/ofoOTqlipG+BgAAAAASUVORK5CYII=;" parent="1" vertex="1">
          <mxGeometry x="303" y="430" width="40" height="40" as="geometry" />
        </mxCell>
        <mxCell id="GygV4am77YOdZEN7_f4k-34" value="Spring CI" style="text;html=1;align=center;verticalAlign=middle;resizable=0;points=[];autosize=1;strokeColor=none;fillColor=none;" parent="1" vertex="1">
          <mxGeometry x="289" y="464" width="70" height="30" as="geometry" />
        </mxCell>
        <mxCell id="GygV4am77YOdZEN7_f4k-37" value="" style="sketch=0;points=[[0,0,0],[0.25,0,0],[0.5,0,0],[0.75,0,0],[1,0,0],[0,1,0],[0.25,1,0],[0.5,1,0],[0.75,1,0],[1,1,0],[0,0.25,0],[0,0.5,0],[0,0.75,0],[1,0.25,0],[1,0.5,0],[1,0.75,0]];outlineConnect=0;fontColor=#232F3E;gradientColor=#F78E04;gradientDirection=north;fillColor=#D05C17;strokeColor=#ffffff;dashed=0;verticalLabelPosition=bottom;verticalAlign=top;align=center;html=1;fontSize=12;fontStyle=0;aspect=fixed;shape=mxgraph.aws4.resourceIcon;resIcon=mxgraph.aws4.ecr;" parent="1" vertex="1">
          <mxGeometry x="370" y="600" width="70" height="70" as="geometry" />
        </mxCell>
        <mxCell id="GygV4am77YOdZEN7_f4k-38" value="ECR Registry" style="text;html=1;align=center;verticalAlign=middle;resizable=0;points=[];autosize=1;strokeColor=none;fillColor=none;" parent="1" vertex="1">
          <mxGeometry x="356" y="670" width="100" height="30" as="geometry" />
        </mxCell>
        <mxCell id="GygV4am77YOdZEN7_f4k-49" value="" style="shape=image;verticalLabelPosition=bottom;labelBackgroundColor=default;verticalAlign=top;aspect=fixed;imageAspect=0;image=data:image/jpeg,/9j/4AAQSkZJRgABAQAAAQABAAD/2wCEAAkGBxAQEBMQEhAWFRATExYXGBUVFRcSEhYYFhIXFhcXFRgYHSggGBolGxUVITEhJikrLi4vGB8zODMuOCgtLisBCgoKDg0OGxAQGi0lICUtLS0tLSstLS0tLS0tLS0tLS0tLS4tLS0tLS0tLS0tLS0tLS0tLS0tLS0tLS0vLS0tLf/AABEIAOEA4QMBIgACEQEDEQH/xAAcAAEAAQUBAQAAAAAAAAAAAAAABQIDBAYIBwH/xABGEAABAwIDBQQHAwkGBwEAAAABAAIDBBEFEiEGMUFRYQcTcYEiMkJSkaGxM3LBFCMkYoKSorLhCDVjdLPRFjZDo8Lw8RX/xAAaAQEAAwEBAQAAAAAAAAAAAAAAAgMFBAEG/8QAMREAAgIBAgQEBAUFAQAAAAAAAAECEQMhMQQFEkFRYYGhMnHB0SKRseHwEyNCUqIU/9oADAMBAAIRAxEAPwD3FERAEREAREQBERAEREAREQBERAEREAREQBERAEREAREQBERAEREAREQBERAEREAREQBERAERWZ5msFz/AFJ5BAXHOA1JWG+tvpG3N1Ojf6q1kdJrJu4M4D73Mq+B8FNRXcqc29iy5srvWkt0YLfM6qk0jTvLj4uKvzODTvurXfdFYm+xXJpblIo2cLjwcV9ET2+rK7wd6QVXfdFU2UJb7niaPjax7ftGae83UeYWZFK1wu0gjosdWHwEHMw5XfwnxCi4p+X6Fim1uSaLFpaoPuCLPG9v4jmFlKpprctTT2CIiHoREQBERAEREAREQBERAEREAREQBERAUPeGgk7go+O73d479kchz8SrlY7M4R8B6TvwCuxtv4BWRVKyqWroNaLXOgVieozaDQKmomzHoNywq+sbDGXu4aAcSeACaRXVLt7EPxTahBb+5dmmawZnODWjiTYKLm2jgHqhzuoFh8zf5KAkllqnlzju4ey3oAsSaIscWnesjNzObf8AbVLxe/2PouG5JhWmaVy8E6X3fzNmZtNDf0mPb10I+RUpSVkcovG8O529YeIOoWgkJBO5jg5pLXDiFHFzPIn+NWvyf89C7PyHBKP9puL83a+56Ox5CvsfdQmCYoKhmukjfWHA/rDopNpstrHOOSKnHZny+XHPDN45qmi7PETZzdHt3Hn0PRZVLUCRubcdxHI8QrLXXVoO7uUH2ZND97gUatHsHTJNERVF4REQBERAEREAREQBERAEREAREQBUlwCqULjvrM8D9QpQj1OiM5dKsv0xzZn+84/AaD6K/UOysA4uVulbZrR0H0StPpeAU3uU3UWzHWqbU1JdKI/ZYPm7U/Ky2iaVrGl7iA0akladPBNVSvkiic5hdoSLDlvJsuHmMm8axx3b28l+9GryPEv6rzS0jFbvRW9N9rqzDp53MNxx5qmWQuOY7yrtZh1RALywua33tHN8yCQFjg3WHKMo6M+rj0S/HFp+a1PqtOVwqulpJZiRFG51uQ0HidwXkYuTpFlqKtul56F7B6oxTsdwvld4O0P+/kt8Wg1OF1MIzSQua3nvA8SL2W70NYydgex1xx5g8iOC2eWtx6scvmvr9D5jn2NT6M0NVqm1qvFfUy4Ha25qqqjzMI42uPEaq00rLWpszAjsXaWUPY031IF1fUFhItMR0d8ip1V5I9MqL4S6lYREUCYREQBERAEREAREQBERAEREAULjvrM8D9VNKKxene8tLW30I+YVmFpTVleVXEv050b4D8FbrPXPl9F8o3eg3mNPgbfgrlY3UO5hS/yK3rE1vEIjVVcVNe0TR3j7aX6fCw/aKvbc7VQ4LSNm7nPd4jjiaQwE5S7U2OVoDTwK+RvEOJNc7QTR5AeF9NPi0fvBS20uztNiMBp6mPNHmDhYlrmuF7OaRuNiR5lckNZzb3uvTt/PM0s+mLDFfD0p+rbt/O9PQiez/bKLGKZ8ghMbmPySRuIe3VoIINhdpB4gbioHaPDRTVJa37N4zNHK+8eRHzC3DZfZqlw2HuKZhawuLnFxLnudYC7iegA5LWttqlslS1jde7ZY+JN7fRc/HqLxWzs5PKSzuK2ad+mxEUVKZ5o4QbZ3ankN5+QK3jHsUgwmhkqCw91C0WY31nFzg1ovzLnC5PitQwGpEVXE93q3LSeWYFt/mFv+MYZFVwPpp2B8Mgs5puLjfoRqCDYgjkocvjHobW9lnOpS64R7Vfrb/Y1Ls47RI8YM0ZpzDLG0Oy5+9a5hNrg5RqDYEW4hZNVTijrmZNIajQt4A3tp4EtP7RCztktiqHCxJ+TRuDpLZnvcXvIF7NvwAud3ndYu0rxLWU0TdTGc7ul3Nd9GfMLqz7KS3TVfn9jh4LWU4P4XGXV8km0/R1RMLNWGwXKynusCeQuu1mRAwMM+3d+19VOKFwmB4fnLbAtOvjZTSjm+IvxfCERFUWBERAEREAREQBERAEREAREQBERARwGSRzeDvSH/AJfNXy3M23EbkrYS4At9dpuOvMeatwS3AcP/AHmCrFqrKmqZFYphzZ2ZHaOBu1w3tP8AsoqLaaalJhnaJSzTOHWcdLi+mu/otlqBrfmtI2jFql3UNP8ACFxcc3jissd9E/Pc0+T1lk+HyK405LydpaNbXeq2M+u2yleC2KLuyfaJzOHgLWHzWuAbyTck3JOpJX0lVzROY4tcLOHA/I+CxsuaeXWTPpsODFhXTjVX+bKHtuLKbwramWFoY9netGgN7PA5XsbqFAX17C0lpFiDYg7weRXmLLPG7iyWXFjyx6citfzZmyVO2T3jJDDlcdMznZrX5CwWbhGGGIukkdnnf6zt9uNgfxWp0Dbyxjm9v8wXoDWXK1+Ak8zc59tvBeh85zdLhoxw4VSlfV4unorfbyLkDeKpq7kCMb3m3lxKvaAcgFTQx5nGU8dGjpz81pXWphqPYzmiwsNwVSIqTpCIiAIiIAiIgCIiAIiIAiIgCIiAIiIAsCphLCZGi4PrNH8w6rPRep0zxq0YLHhwuDcFaVtYzLUDqxp+o/BbtPSm+aM2cd4Pqu8eR6rS9rr983M0tPdjTfuc7ceI1XLzCngteKO/k+nFa/6v6EIFbw3b2iiJoMUYWuh0inyOe18R+zuWXc1wFgTqDluriiMf2egrWgSAh7fVe3RwHLXQjoVlcLmjjk+paM3uP4aeaKeN1JO129yaxPtGwelbahZ+U1bvRjAY8NDjo3M+QDS/u3P1ViMPyjO7NJb0ne84+s7zNyoDANj6ekf3oLpJB6rn2s3q0Dj1WxqXF54TqONaL0IcBwuTH1Tyu5PTe9PmZmDMvURD/Eb/ADXXoWgHRef4Cf0mLQn0ibDebNK31lI5+smjfcB/mPFd/LKWOTfj9EZPPLeeCX+v1f2KI2GY8ogf37cPBSYFl8a0AWG5VLvlKzKjGgiIokgiIgCIiAIiIAiIgCIiAIiIAiIgCIiAL4V9RARFdjTIt8UzvuxOA+LgAtDxSrknldI9paHaNBBsAOAvv3/NeprUNvW/Yn74/lXBxsJPG3e3ajY5ZmxrKoxhq+932vaq1o1G1l8usmeOzIzzB/nI/BWntsbeHzAKyGqPoYzT9/Z0W7r6BdfR+KyqSH845vJkvyjd/svErEpUmWKd0jXB8YJewhwsL7j04LesP2kbKAHQStdxtG57b9C0X+SgNim3qSeUbvqB+K30LV4CEujqT9DD5rmx9f8ATnC2lvdblEUgcLi+vMEH4HVXERaRhBERAEREAREQBERAEREAREQBERAEREAREQBERAFq23bfzUZ/XI+Lf6Kdqq0M9iR3RjHO+YFvmtYx+Woqg2NlJI1odcFwsSbEeAGvNcnFzTxSit/U0OX45LNHI9Irdtpfr9CGxBloqfrET/3nKziseWZzeWUfwNUhtFD3f5PBcF7Ig11tdS5Wsaps1Y6Me1I1vxyj8Vl5YU5LzivXp/Y38GRSUWtmpv8A6RFxesPEfVTNLF+nSN61A/gerONwd3WPaBoXgjwdY/is+ANZijg42DpH79PWabfG6Y4VJJ9pJfqRy5erG5R742/ZfcbCj8+88o/q5q3laPhtPU0Uzv0d0jTpdoJuAbggj6FbTTYiH6GKVh5PjcPmAR81o8E1DH0S0evYxuZxeTK8sNYtLVNP239jPREXcZYREQBERAEREAREQBERAEREAREQBERAERY1ZWRQtzyysjYPae5rG/FxsgMlFD0e02HzOyRV1NI8+yyeN7j4AOuphAfCoyto2kXfLNbkxzvowKURRlFSVMnjm4O17bmnmKGE54qOeSQG4dIxwaDz1F7+St4Phc8tT+UzMyDNn1FiTwAG+w038lPV+0tDTuyTVtPE/wB2SaNjvgTdSUUgc0OaQWkAgg3BB3EEbwuf/wAsbVvRO6SSR2vj5dLUVq1VttuvBdl+Rq21WDySSCeIXIABA3+ibhw5/wBFbcWz2NTQzCQC3eRsfr4j/wCrZ66vhgZnmlZEwe1I9sbfi4gKOpdrcOlcGR19M953NbPGXHwF9UlwqcnJPfdNJr3PMfHOMFFr4dmm00vDTsMOoYv+nJUN6OMjPk8WUxG2wtcnqd6rRXwgorT2OTLkeR22/XUIiicR2koaZ2Sesgif7skzGO/dJuplZLIsDDcYpqkXp6iKYDeYpGyW8cpNlnoAiIgCIiAIiIAiIgCIiAIiIAiIgNC7U9vm4TCGRgPrJge7adWsaNDI8cr6AcT4Fc6yzV+LVOvfVVS7cADIQL8GjRjBfhYBSfapijqrF6t5NxHKYWjk2H0LDpcOPmV0N2abLRYbQRMDR38jGvmf7TnuF8t/dbfKB0vvJQHN2L7DYpSRmWeilbENS4APa0c3ZCco6my2fs27UKiglZBVSOloXEN9Ilz4eGZhOpaOLeW7r0s4X0O5ct9suzcWH4kRC3LDPGJmtHqsLnOa9reQu29uGYDggOoWSNLQ4EFpFwb6EEXBvysueO0/tTnqpX0tFKY6RpymRhyvmIOpDhqI+QG8b99lsdDtJK3Y50mb86xhpQQbENMwiFjwIjcPgvOuyXZ2PEcTjilAdDG100jT7YYQA09C5zb9LoCMwTYrE61gkp6KR8Z3PsGMP3XPIB8l7DVbQS7NYNTUkhbJiLw/Iy+ZkYLy67jxa3MBbid2gXrkbA0BrQA0CwA0AA3ADgFyv2x4k6oxmqufRiLYmjk1jRcfvF580BCSzYhi1TqZaqpdwALyBfg0aMaL8LALMxPYDFaeMyy0MojAuXDLJlHNwYSQOpXQvZRs1FQYbAWsHf1EbJZX+0S9ocGk8mg2A3bzxK3WyA5f7Oe0yow2RsUz3S0JIBY4lzohuzQk7re7uPQ6rpqlqGSxsljcHRvaHNcNQ5rhcEdCCubu3XZmKir2TQtDIqpheWDQNka6z8o4A3afElbZsRtLJHspVvzHvKXvYWOvqO8DMhH3TNp90ICK7Vu1OaWV9FQyGOCMlskzDZ8rgbEMcNWsB0uN/hv8/wAF2OxKvaZKakkkZc+no1hN9bPeQHG/JZPZrgDcQxOCmk+xuXyW4sjaXZfMgN811lBC1jQxjQ1jQA1rQA1oAsAANwQHHuIYTX4ZM0yxTU0wN2P1YdN5Y9uh38Cvc+yHtJdX/oVWR+Vtbdklg0TNA1uBoHjfpvFzwK3/AGkwKDEKaSmnbdjxobekx1vRe3k4Fcl4XVSYdXxyXtJS1AzW/wAN9njwIBHmgOykVLToqkAREQBERAEREAREQBERAEREByX2rYU6lxeraQQ2SUzNPAtmOe4/aLh5LoLsz2uhxKiiIePymKNrZo72cHNGXPb3HWuD1tvCxu1DYJmLQtcwhlZED3bz6rgdTHJb2Sdx4HxIPOuKYPiOFzfnI5qeRps2Rpc0H7kjTYjwKA7BkeGguJAAFyToABvJPBcudse00WI4kXQuzQQRiFrx6ryHOc546XdYHiGg8Vr1dtNiNU0RS1lRK06ZHSvc0+Lb6qnFdm62lijmqKZ8Uct8heMt7Wvcb279L2vrZAeg0n/Jc3+bH+tGrH9nX+9pf8nJ/rQqRpcOm/4Ml/Nu1m70Cxv3YmZd9vd9Em/IXWJ/Z0pnnEp5Q0922lc0u4Bz5Yy0eJDXfAoDopcsdtGEvpsYqHEehPlmYeBDmgO8w8OC6nWndo+xEWL04YSGVEdzFKRcAnex1tSx1h4WB6EDC7Idq4a6ghhzgVNNG2KSMn0iGDK2QcwQBrwNwt6e8AEk2AFyToAOZXIGM4DiOFTXljkge0+jKwkNPWOVuh+N1ardp8RqmiKWsqJWHTI6V7g7oW39JAbR20bWRYjXNbA4Op6ZhY143PeXXe5p4t0aBzy34raey7CnVmzWJUzBd75pMo5vbDC9o83NAXlGK4DVUjIpKiB0QmDjGHjK5wZa5ynUD0hvGq91/s4f3bUf5t3+hEgPHOz3Hxh2JQVTwe7a4tkA35HtLHG3Ei+a36q6zoa2KeNs0T2vieAWvabtIPIrxXtW7J5XyvrsPZnDyXS040eHHVz4veB3lu++697DyijxjEKBzo4p56d1/SYHPi1/WZpr5IDqzbDaaDDKV9TM4aAhjL+nI+3osaOPU8BcrlXAaGTEcQiitmfUzjNbk52aR3gG5j5JDFiGJzADv6qY6XJdK4A83G+UeNgvfeyfs3//ACwamos6tkbazTdkLDvaD7Tzpc7uA4kgelAL6iIAiIgCIiAIiIAiIgCIiAIiIAqJI2uFnAEciLj5qtEBiw0ELDdkLGnm1jWn4gK7NAx4yvaHN5OAcPgVdRAUZBa1ha1rcLclapqWOIZY42sBN7MaGi/OwWQiALx3tf7R63DquOlpQxg7psjnvZnL8znANAOgaMu/fflZexLRu0/YVuLU4ykMq4bmJ53EHfG/9U6a8D53AyOz3a+HGKMPOT8oYMs8PBrveDXXOR28b+IvcFbNBh8EZzMhjYebWNafiAuQ6mlxDCamzhNS1DdxBLCRfXK5ps9t7biQVk4nt3itTGYpa6V0ZFi0EMDhydlAzDxQGzdue00VdXtihcHxUrCzONQ6RzrvyniBZrfEFen9guFugwgPcCDUTPlAOno2bG3yPd3815X2c9mNTiEjJqhjoaEEEucC18o35YgdbH393K5XS9PAyNjY2NDWMaGtaNAGtFgB0AQF5Y1RQwy/aRMf99jXfULJRAWoKdkYysY1reTQGj4BXURAEREAREQBERAEREAREQBERAEREAREQBERAEREAREQGNVUkUzcksbJGe69oe34EWWDR7MYfC7PFQ07H3vmbDG11/EBS6IAiIgCIiAIiIAiIgCIiAIiIAiIgCIiAIiIAiIgCIiAIiIAiIgCIiAIiIAiIgCIiAIiIAiIgCIiAIiIAiIgP//Z;" parent="1" vertex="1">
          <mxGeometry x="510" y="464" width="90" height="90" as="geometry" />
        </mxCell>
        <mxCell id="GygV4am77YOdZEN7_f4k-57" style="edgeStyle=orthogonalEdgeStyle;rounded=0;orthogonalLoop=1;jettySize=auto;html=1;" parent="1" source="GygV4am77YOdZEN7_f4k-54" target="GygV4am77YOdZEN7_f4k-49" edge="1">
          <mxGeometry relative="1" as="geometry" />
        </mxCell>
        <mxCell id="GygV4am77YOdZEN7_f4k-54" value="GitOps" style="text;html=1;align=center;verticalAlign=middle;resizable=0;points=[];autosize=1;strokeColor=none;fillColor=none;" parent="1" vertex="1">
          <mxGeometry x="525" y="344" width="60" height="30" as="geometry" />
        </mxCell>
        <mxCell id="GygV4am77YOdZEN7_f4k-53" value="" style="verticalLabelPosition=bottom;html=1;verticalAlign=top;align=center;strokeColor=none;fillColor=#00BEF2;shape=mxgraph.azure.git_repository;" parent="1" vertex="1">
          <mxGeometry x="541" y="319" width="30" height="30" as="geometry" />
        </mxCell>
        <mxCell id="GygV4am77YOdZEN7_f4k-58" value="" style="verticalLabelPosition=bottom;html=1;verticalAlign=top;align=center;strokeColor=none;fillColor=#00BEF2;shape=mxgraph.azure.git_repository;" parent="1" vertex="1">
          <mxGeometry x="429" y="320" width="30" height="30" as="geometry" />
        </mxCell>
        <mxCell id="GygV4am77YOdZEN7_f4k-59" value="Terraform" style="text;html=1;align=center;verticalAlign=middle;resizable=0;points=[];autosize=1;strokeColor=none;fillColor=none;" parent="1" vertex="1">
          <mxGeometry x="411" y="347" width="69" height="26" as="geometry" />
        </mxCell>
        <mxCell id="GygV4am77YOdZEN7_f4k-60" value="" style="shape=image;verticalLabelPosition=bottom;labelBackgroundColor=default;verticalAlign=top;aspect=fixed;imageAspect=0;image=data:image/png,iVBORw0KGgoAAAANSUhEUgAAAQMAAADCCAMAAAB6zFdcAAAAzFBMVEX///9fQ+lAQLJeQelTMuhbPemMe+5jRuoqKq00NK/p6fXUz/ioqNhdQOlQLehRL+hXN+g5ObD5+P5VNehYOuiIdu7t6vxNKOfw7v2nmvLCuvba1fnSzPgnJ6y9tPVsVOu1td4vL67k4Pt2YOxzc8ODcO3R0eqekPHLxPeyp/NmS+p9aeyXiPBoTupsbMG5r/SsoPLHwPZwWOtWVrkfH6qbm9O5ud9QULigkvGSks+Tg+94YuxFRbT29P5HH+fn4/uGhsrHx+VjY74VFapDYfotAAAFyklEQVR4nO2da3vaOBBGJQwEyILxhZK00EIbQsml7bbbTdJNmr38//+0kmOwsSVbTuwKaeb90g9tkvF5nh5mNCIQgsFgMBgMBoPBYDAYDAbTVE583RXoz2z8UXcJ2nPsuh/e6y5Cc47bdDj68aC7DK1hDCgN219016EzEQPqjDu/665EX54YMArtD29016IrWwaUa+FEdzV6kjBgWnBhaiHNgNLgCKIW9hlQxwWohQwDpoVpF5oWcgwo7UDTgoABpWP6WnddvzJCBqxb+ApIC2IGvFuAowUZA6aF9qnu4n5R5Az4EAFDCwUMwGihkAEQLZQwYFoYWa+FUgasW7BdCwoMrNeCCgOuhckr3ZU2FzUGfIg4tXYTocrAZi2oM6DOz5nuaptJBQa0fay72maCDJ7DYN3k6+Titwa/uSzVGXSnk6ba5/NvfxjCoMOm6iZeJwdnPa9vCgM2VQ/rf5383vNaLXMYNNA+/+n1Wy2zGNQ8VZ9/W7Za5jGocaoenM29lpkMWPsc1qAFPxKBsQyYFt69VAuxCMxl8OKpeicCkxlEWnhut8A7gpYNDPhU/fZZP/t7loDBDLgWqo9Tiz0RGM+Aa2FVTQvnN8s8AbMZ8NXcrboWmAhEBExnwLsFVS3c5UVgCQNVLSz6AhHYwkCpW8h2BNYx4N1CoRZSo4G9DCgNA6kW/LtiAtYwYFq4FmtB2BEcAgO3dgaSbkHSERwAg0caOLUz4FpY72th8EnSERwAA0K+tMP6GTAthJ+Tn+HLO4KDYEAefkzVHqsSA66F7W6uqCM4DAaEvP/LVfkPUY1BpAX+Bf69ggi0MyDko4oWqjKgDuVfMJgrI9DKgJCNW6qF6gyOIgZKNjwEBuThalTydPYzYFq4LNYCBAZMC0dFWoDBgGkhkGsBCgOmBVf2kGAYRN3CEDoDpoULoRZAMZBoARgDpoX8EAGNAZuqL7NagMeAkFlGCxAZZIcImAyInx4igDKIhoitFsAySGkBMANCPo9D8AzIw5oPEbAZ8G5hNITOgGnh+id4BqxbQAZxkAEy4JkEDTKYm8FANFXXxMDrmYGAiKbqWhh4vb9Nehvp7FppY1+JQe9f095OvFHZ2FdgsLz/R/cjVY9fupqrwKBvyOvBNrvfPFq2mlNmYJgIWFbJXaNZycZejYF5IiDdYJpcQSxazakxMFIErE8cJ3eNfPlqToWBaSKIw3vl9M1kPlU/k4E3N00EcZ7mheHoMtHCdVushRIGvU8DfY/xomxnpo6bXEGMD9sqMVjeGCiCOMncmLqC6K9FQ0QBg35voe0JXp7U7Jy6gkherfJakDLw5ndmiiDO3vnBcLR63P7F7F1WCzIG5oogTuYMJX0zOasFMYPl/bm+6utJ7hwpbCdauN0bIkQM+v2FttJrS/4szQkudlp4XKXOFvIMvJ7ZIogjOk9Ma+H4YqeFHAPjRRBHfKbama53H+LwNgyFDJY3xosgjuxcORxvtv/Ev30aIvYY9L2FtprrjvRs3Qmy3UKKgekdwX4K9gtsiEi0wLqFhMH8zA4RxCncsXTcq5QWgpiBPSKIU7Jn2tcC/2Pw30JbsQ2lbNfGuoXdRz5F47VvkQjilO8bh+6l5R/5pLJz7YyurP7IJ7W9c+huyr+VsVHcvTvBkb2fBKd8/8CxVwsV7mB0At3FNpTK91AsDDJABjzIABnwIANkwIMMkAEPMkAGPMgAGfAgA2TAgwyQAQ8yQAY8yAAZ8CADZMAzQQZkU/4+JusZCG8mQ2PwdNcIOgN+12gMnsHuCiJkBkpasJ6BghYAMGBa6BRqAQQD4p8W/TIEGAyYFiZyLUBhUKQFOAzk3QIkBoSIuwVYDMRaAMaAkDd5LYBjQMjrbLcAkAHrFva1AJFBVgswGTAtfE20AJUB08JwDJ4BIdshAjIDctKNtACaQawF4AyYFsIxeAZMC+5Qdwn6c9LVXQEGg8FgMBgMBoPBYDAYTCr/Ayt3f9/A4PxrAAAAAElFTkSuQmCC;" parent="1" vertex="1">
          <mxGeometry x="390.6" y="160" width="106.8" height="80" as="geometry" />
        </mxCell>
        <mxCell id="GygV4am77YOdZEN7_f4k-61" value="Terraform Cloud" style="text;html=1;align=center;verticalAlign=middle;resizable=0;points=[];autosize=1;strokeColor=none;fillColor=none;" parent="1" vertex="1">
          <mxGeometry x="392" y="242" width="104" height="26" as="geometry" />
        </mxCell>
        <mxCell id="GygV4am77YOdZEN7_f4k-64" value="" style="shape=image;html=1;verticalAlign=top;verticalLabelPosition=bottom;labelBackgroundColor=#ffffff;imageAspect=0;aspect=fixed;image=https://cdn4.iconfinder.com/data/icons/essential-app-2/16/user-avatar-human-admin-login-128.png" parent="1" vertex="1">
          <mxGeometry x="767" y="60" width="40" height="40" as="geometry" />
        </mxCell>
        <mxCell id="GygV4am77YOdZEN7_f4k-65" value="Client" style="text;html=1;align=center;verticalAlign=middle;resizable=0;points=[];autosize=1;strokeColor=none;fillColor=none;" parent="1" vertex="1">
          <mxGeometry x="760" y="95" width="50" height="30" as="geometry" />
        </mxCell>
        <mxCell id="GygV4am77YOdZEN7_f4k-66" value="AWS Cloud" style="points=[[0,0],[0.25,0],[0.5,0],[0.75,0],[1,0],[1,0.25],[1,0.5],[1,0.75],[1,1],[0.75,1],[0.5,1],[0.25,1],[0,1],[0,0.75],[0,0.5],[0,0.25]];outlineConnect=0;gradientColor=none;html=1;whiteSpace=wrap;fontSize=12;fontStyle=0;container=1;pointerEvents=0;collapsible=0;recursiveResize=0;shape=mxgraph.aws4.group;grIcon=mxgraph.aws4.group_aws_cloud_alt;strokeColor=#232F3E;fillColor=none;verticalAlign=top;align=left;spacingLeft=30;fontColor=#232F3E;dashed=0;" parent="1" vertex="1">
          <mxGeometry x="720" y="200" width="640" height="480" as="geometry" />
        </mxCell>
        <mxCell id="GygV4am77YOdZEN7_f4k-67" value="VPC" style="points=[[0,0],[0.25,0],[0.5,0],[0.75,0],[1,0],[1,0.25],[1,0.5],[1,0.75],[1,1],[0.75,1],[0.5,1],[0.25,1],[0,1],[0,0.75],[0,0.5],[0,0.25]];outlineConnect=0;gradientColor=none;html=1;whiteSpace=wrap;fontSize=12;fontStyle=0;container=1;pointerEvents=0;collapsible=0;recursiveResize=0;shape=mxgraph.aws4.group;grIcon=mxgraph.aws4.group_vpc;strokeColor=#248814;fillColor=none;verticalAlign=top;align=left;spacingLeft=30;fontColor=#AAB7B8;dashed=0;" parent="GygV4am77YOdZEN7_f4k-66" vertex="1">
          <mxGeometry x="30" y="30" width="600" height="440" as="geometry" />
        </mxCell>
        <mxCell id="GygV4am77YOdZEN7_f4k-69" value="Public subnet" style="points=[[0,0],[0.25,0],[0.5,0],[0.75,0],[1,0],[1,0.25],[1,0.5],[1,0.75],[1,1],[0.75,1],[0.5,1],[0.25,1],[0,1],[0,0.75],[0,0.5],[0,0.25]];outlineConnect=0;gradientColor=none;html=1;whiteSpace=wrap;fontSize=12;fontStyle=0;container=1;pointerEvents=0;collapsible=0;recursiveResize=0;shape=mxgraph.aws4.group;grIcon=mxgraph.aws4.group_security_group;grStroke=0;strokeColor=#248814;fillColor=#E9F3E6;verticalAlign=top;align=left;spacingLeft=30;fontColor=#248814;dashed=0;" parent="GygV4am77YOdZEN7_f4k-67" vertex="1">
          <mxGeometry x="30" y="30" width="540" height="150" as="geometry" />
        </mxCell>
        <mxCell id="GygV4am77YOdZEN7_f4k-81" value="" style="outlineConnect=0;dashed=0;verticalLabelPosition=bottom;verticalAlign=top;align=center;html=1;shape=mxgraph.aws3.vpc_nat_gateway;fillColor=#F58534;gradientColor=none;" parent="GygV4am77YOdZEN7_f4k-69" vertex="1">
          <mxGeometry x="250" y="126" width="40" height="40" as="geometry" />
        </mxCell>
        <mxCell id="GygV4am77YOdZEN7_f4k-112" value="" style="sketch=0;html=1;dashed=0;whitespace=wrap;fillColor=#2875E2;strokeColor=#ffffff;points=[[0.005,0.63,0],[0.1,0.2,0],[0.9,0.2,0],[0.5,0,0],[0.995,0.63,0],[0.72,0.99,0],[0.5,1,0],[0.28,0.99,0]];verticalLabelPosition=bottom;align=center;verticalAlign=top;shape=mxgraph.kubernetes.icon;prIcon=ing" parent="GygV4am77YOdZEN7_f4k-69" vertex="1">
          <mxGeometry x="235" y="42.5" width="70" height="65" as="geometry" />
        </mxCell>
        <mxCell id="GygV4am77YOdZEN7_f4k-113" value="Ingress Controller" style="text;html=1;align=center;verticalAlign=middle;resizable=0;points=[];autosize=1;strokeColor=none;fillColor=none;" parent="GygV4am77YOdZEN7_f4k-69" vertex="1">
          <mxGeometry x="210" y="100" width="120" height="30" as="geometry" />
        </mxCell>
        <mxCell id="GygV4am77YOdZEN7_f4k-70" value="" style="points=[[0,0],[0.25,0],[0.5,0],[0.75,0],[1,0],[1,0.25],[1,0.5],[1,0.75],[1,1],[0.75,1],[0.5,1],[0.25,1],[0,1],[0,0.75],[0,0.5],[0,0.25]];outlineConnect=0;gradientColor=none;html=1;whiteSpace=wrap;fontSize=12;fontStyle=0;container=1;pointerEvents=0;collapsible=0;recursiveResize=0;shape=mxgraph.aws4.group;grIcon=mxgraph.aws4.group_security_group;grStroke=0;strokeColor=#147EBA;fillColor=#E6F2F8;verticalAlign=top;align=left;spacingLeft=30;fontColor=#147EBA;dashed=0;" parent="GygV4am77YOdZEN7_f4k-67" vertex="1">
          <mxGeometry x="30" y="210" width="240" height="200" as="geometry" />
        </mxCell>
        <mxCell id="GygV4am77YOdZEN7_f4k-104" value="" style="sketch=0;html=1;dashed=0;whitespace=wrap;fillColor=#2875E2;strokeColor=#ffffff;points=[[0.005,0.63,0],[0.1,0.2,0],[0.9,0.2,0],[0.5,0,0],[0.995,0.63,0],[0.72,0.99,0],[0.5,1,0],[0.28,0.99,0]];verticalLabelPosition=bottom;align=center;verticalAlign=top;shape=mxgraph.kubernetes.icon;prIcon=svc" parent="GygV4am77YOdZEN7_f4k-70" vertex="1">
          <mxGeometry x="165" y="-29" width="50" height="48" as="geometry" />
        </mxCell>
        <mxCell id="GygV4am77YOdZEN7_f4k-105" value="Go Service" style="text;html=1;align=center;verticalAlign=middle;resizable=0;points=[];autosize=1;strokeColor=none;fillColor=none;" parent="GygV4am77YOdZEN7_f4k-70" vertex="1">
          <mxGeometry x="150" y="10" width="80" height="30" as="geometry" />
        </mxCell>
        <mxCell id="GygV4am77YOdZEN7_f4k-71" value="" style="points=[[0,0],[0.25,0],[0.5,0],[0.75,0],[1,0],[1,0.25],[1,0.5],[1,0.75],[1,1],[0.75,1],[0.5,1],[0.25,1],[0,1],[0,0.75],[0,0.5],[0,0.25]];outlineConnect=0;gradientColor=none;html=1;whiteSpace=wrap;fontSize=12;fontStyle=0;container=1;pointerEvents=0;collapsible=0;recursiveResize=0;shape=mxgraph.aws4.group;grIcon=mxgraph.aws4.group_security_group;grStroke=0;strokeColor=#147EBA;fillColor=#E6F2F8;verticalAlign=top;align=left;spacingLeft=30;fontColor=#147EBA;dashed=0;" parent="GygV4am77YOdZEN7_f4k-67" vertex="1">
          <mxGeometry x="330" y="210" width="240" height="200" as="geometry" />
        </mxCell>
        <mxCell id="GygV4am77YOdZEN7_f4k-107" value="Spring Service" style="text;html=1;align=center;verticalAlign=middle;resizable=0;points=[];autosize=1;strokeColor=none;fillColor=none;" parent="GygV4am77YOdZEN7_f4k-71" vertex="1">
          <mxGeometry x="20" y="10" width="100" height="30" as="geometry" />
        </mxCell>
        <mxCell id="GygV4am77YOdZEN7_f4k-80" value="EKS Cluster" style="fillColor=none;strokeColor=#5A6C86;dashed=1;verticalAlign=top;fontStyle=0;fontColor=#5A6C86;whiteSpace=wrap;html=1;" parent="GygV4am77YOdZEN7_f4k-67" vertex="1">
          <mxGeometry x="40" y="240" width="520" height="160" as="geometry" />
        </mxCell>
        <mxCell id="GygV4am77YOdZEN7_f4k-85" style="edgeStyle=orthogonalEdgeStyle;rounded=0;orthogonalLoop=1;jettySize=auto;html=1;endArrow=none;endFill=0;" parent="GygV4am77YOdZEN7_f4k-67" target="GygV4am77YOdZEN7_f4k-71" edge="1">
          <mxGeometry relative="1" as="geometry">
            <mxPoint x="300" y="210" as="sourcePoint" />
            <Array as="points">
              <mxPoint x="300" y="220" />
            </Array>
          </mxGeometry>
        </mxCell>
        <mxCell id="GygV4am77YOdZEN7_f4k-98" style="edgeStyle=orthogonalEdgeStyle;rounded=0;orthogonalLoop=1;jettySize=auto;html=1;endArrow=none;endFill=0;" parent="GygV4am77YOdZEN7_f4k-67" target="GygV4am77YOdZEN7_f4k-70" edge="1">
          <mxGeometry relative="1" as="geometry">
            <mxPoint x="300" y="220" as="sourcePoint" />
            <mxPoint x="280" y="310" as="targetPoint" />
            <Array as="points">
              <mxPoint x="280" y="220" />
              <mxPoint x="280" y="220" />
            </Array>
          </mxGeometry>
        </mxCell>
        <mxCell id="GygV4am77YOdZEN7_f4k-97" value="NAT" style="text;html=1;align=center;verticalAlign=middle;resizable=0;points=[];autosize=1;strokeColor=none;fillColor=none;" parent="GygV4am77YOdZEN7_f4k-67" vertex="1">
          <mxGeometry x="275" y="190" width="50" height="30" as="geometry" />
        </mxCell>
        <mxCell id="GygV4am77YOdZEN7_f4k-99" value="" style="rounded=1;whiteSpace=wrap;html=1;" parent="GygV4am77YOdZEN7_f4k-67" vertex="1">
          <mxGeometry x="50" y="270" width="500" height="110" as="geometry" />
        </mxCell>
        <mxCell id="GygV4am77YOdZEN7_f4k-100" value="" style="sketch=0;html=1;dashed=0;whitespace=wrap;fillColor=#2875E2;strokeColor=#ffffff;points=[[0.005,0.63,0],[0.1,0.2,0],[0.9,0.2,0],[0.5,0,0],[0.995,0.63,0],[0.72,0.99,0],[0.5,1,0],[0.28,0.99,0]];verticalLabelPosition=bottom;align=center;verticalAlign=top;shape=mxgraph.kubernetes.icon;prIcon=pod" parent="GygV4am77YOdZEN7_f4k-67" vertex="1">
          <mxGeometry x="105" y="280" width="90" height="80" as="geometry" />
        </mxCell>
        <mxCell id="GygV4am77YOdZEN7_f4k-101" value="" style="sketch=0;html=1;dashed=0;whitespace=wrap;fillColor=#2875E2;strokeColor=#ffffff;points=[[0.005,0.63,0],[0.1,0.2,0],[0.9,0.2,0],[0.5,0,0],[0.995,0.63,0],[0.72,0.99,0],[0.5,1,0],[0.28,0.99,0]];verticalLabelPosition=bottom;align=center;verticalAlign=top;shape=mxgraph.kubernetes.icon;prIcon=pod" parent="GygV4am77YOdZEN7_f4k-67" vertex="1">
          <mxGeometry x="410" y="280" width="90" height="80" as="geometry" />
        </mxCell>
        <mxCell id="GygV4am77YOdZEN7_f4k-102" value="Go Pod" style="text;html=1;align=center;verticalAlign=middle;resizable=0;points=[];autosize=1;strokeColor=none;fillColor=none;" parent="GygV4am77YOdZEN7_f4k-67" vertex="1">
          <mxGeometry x="120" y="353" width="60" height="30" as="geometry" />
        </mxCell>
        <mxCell id="GygV4am77YOdZEN7_f4k-103" value="Spring Pod" style="text;html=1;align=center;verticalAlign=middle;resizable=0;points=[];autosize=1;strokeColor=none;fillColor=none;" parent="GygV4am77YOdZEN7_f4k-67" vertex="1">
          <mxGeometry x="415" y="353" width="80" height="30" as="geometry" />
        </mxCell>
        <mxCell id="GygV4am77YOdZEN7_f4k-106" value="" style="sketch=0;html=1;dashed=0;whitespace=wrap;fillColor=#2875E2;strokeColor=#ffffff;points=[[0.005,0.63,0],[0.1,0.2,0],[0.9,0.2,0],[0.5,0,0],[0.995,0.63,0],[0.72,0.99,0],[0.5,1,0],[0.28,0.99,0]];verticalLabelPosition=bottom;align=center;verticalAlign=top;shape=mxgraph.kubernetes.icon;prIcon=svc" parent="GygV4am77YOdZEN7_f4k-67" vertex="1">
          <mxGeometry x="365" y="180" width="50" height="48" as="geometry" />
        </mxCell>
        <mxCell id="GygV4am77YOdZEN7_f4k-109" value="" style="endArrow=classic;html=1;rounded=0;entryX=0.9;entryY=0.2;entryDx=0;entryDy=0;entryPerimeter=0;" parent="GygV4am77YOdZEN7_f4k-67" target="GygV4am77YOdZEN7_f4k-100" edge="1">
          <mxGeometry width="50" height="50" relative="1" as="geometry">
            <mxPoint x="220" y="240" as="sourcePoint" />
            <mxPoint x="-10" y="210" as="targetPoint" />
          </mxGeometry>
        </mxCell>
        <mxCell id="GygV4am77YOdZEN7_f4k-110" value="" style="endArrow=classic;html=1;rounded=0;entryX=0.1;entryY=0.2;entryDx=0;entryDy=0;entryPerimeter=0;exitX=0.677;exitY=0.006;exitDx=0;exitDy=0;exitPerimeter=0;" parent="GygV4am77YOdZEN7_f4k-67" source="GygV4am77YOdZEN7_f4k-80" target="GygV4am77YOdZEN7_f4k-101" edge="1">
          <mxGeometry width="50" height="50" relative="1" as="geometry">
            <mxPoint x="230" y="250" as="sourcePoint" />
            <mxPoint x="196" y="306" as="targetPoint" />
          </mxGeometry>
        </mxCell>
        <mxCell id="GygV4am77YOdZEN7_f4k-114" value="" style="endArrow=classic;html=1;rounded=0;entryX=0.5;entryY=0;entryDx=0;entryDy=0;entryPerimeter=0;exitX=0.083;exitY=0.667;exitDx=0;exitDy=0;exitPerimeter=0;" parent="GygV4am77YOdZEN7_f4k-67" source="GygV4am77YOdZEN7_f4k-113" target="GygV4am77YOdZEN7_f4k-104" edge="1">
          <mxGeometry width="50" height="50" relative="1" as="geometry">
            <mxPoint x="-760" y="410" as="sourcePoint" />
            <mxPoint x="-710" y="360" as="targetPoint" />
          </mxGeometry>
        </mxCell>
        <mxCell id="GygV4am77YOdZEN7_f4k-115" value="" style="endArrow=classic;html=1;rounded=0;entryX=0.5;entryY=0;entryDx=0;entryDy=0;entryPerimeter=0;" parent="GygV4am77YOdZEN7_f4k-67" target="GygV4am77YOdZEN7_f4k-106" edge="1">
          <mxGeometry width="50" height="50" relative="1" as="geometry">
            <mxPoint x="350" y="150" as="sourcePoint" />
            <mxPoint x="-90" y="210" as="targetPoint" />
          </mxGeometry>
        </mxCell>
        <mxCell id="GygV4am77YOdZEN7_f4k-117" value="" style="sketch=0;points=[[0,0,0],[0.25,0,0],[0.5,0,0],[0.75,0,0],[1,0,0],[0,1,0],[0.25,1,0],[0.5,1,0],[0.75,1,0],[1,1,0],[0,0.25,0],[0,0.5,0],[0,0.75,0],[1,0.25,0],[1,0.5,0],[1,0.75,0]];outlineConnect=0;fontColor=#232F3E;gradientColor=#F78E04;gradientDirection=north;fillColor=#D05C17;strokeColor=#ffffff;dashed=0;verticalLabelPosition=bottom;verticalAlign=top;align=center;html=1;fontSize=12;fontStyle=0;aspect=fixed;shape=mxgraph.aws4.resourceIcon;resIcon=mxgraph.aws4.eks;" parent="GygV4am77YOdZEN7_f4k-67" vertex="1">
          <mxGeometry x="40" y="238" width="32" height="32" as="geometry" />
        </mxCell>
        <mxCell id="Zcb99IPE-UerZcN2fVdD-1" value="Istio" style="sketch=0;html=1;verticalAlign=top;labelPosition=center;verticalLabelPosition=bottom;align=center;spacingTop=-6;fontSize=11;fontStyle=1;fontColor=#999999;shape=image;aspect=fixed;imageAspect=0;image=data:image/svg+xml,PHN2ZyB4bWxucz0iaHR0cDovL3d3dy53My5vcmcvMjAwMC9zdmciIHhtbG5zOnY9Imh0dHBzOi8vdmVjdGEuaW8vbmFubyIgd2lkdGg9IjE2MCIgaGVpZ2h0PSIyNDAiIHZpZXdCb3g9IjAgMCAxNjAgMjQwIj4mI3hhOwk8c3R5bGUgdHlwZT0idGV4dC9jc3MiPiYjeGE7CS5zdDB7ZmlsbDojNDY2YmIwO30mI3hhOwk8L3N0eWxlPiYjeGE7CTxwYXRoIGNsYXNzPSJzdDAiIGQ9Ik02MCAyNDBMMCAyMTBoMTYwem0wLTE2MEwwIDIwMGw2MC0xMHpNNzAgMHYxOTBsOTAgMTB6Ii8+JiN4YTs8L3N2Zz4=;" vertex="1" parent="GygV4am77YOdZEN7_f4k-67">
          <mxGeometry x="274.8600000000001" y="-39" width="50.14" height="78" as="geometry" />
        </mxCell>
        <mxCell id="GygV4am77YOdZEN7_f4k-127" style="edgeStyle=orthogonalEdgeStyle;rounded=0;orthogonalLoop=1;jettySize=auto;html=1;entryX=0.5;entryY=0;entryDx=0;entryDy=0;entryPerimeter=0;" parent="GygV4am77YOdZEN7_f4k-67" target="GygV4am77YOdZEN7_f4k-112" edge="1">
          <mxGeometry relative="1" as="geometry">
            <mxPoint x="300" y="52" as="sourcePoint" />
            <mxPoint x="305.06999999999994" y="95" as="targetPoint" />
          </mxGeometry>
        </mxCell>
        <mxCell id="GygV4am77YOdZEN7_f4k-91" value="" style="endArrow=classic;html=1;rounded=0;entryX=0;entryY=0.5;entryDx=0;entryDy=0;" parent="1" source="GygV4am77YOdZEN7_f4k-130" target="GygV4am77YOdZEN7_f4k-80" edge="1">
          <mxGeometry width="50" height="50" relative="1" as="geometry">
            <mxPoint x="690" y="490" as="sourcePoint" />
            <mxPoint x="740" y="440" as="targetPoint" />
          </mxGeometry>
        </mxCell>
        <mxCell id="GygV4am77YOdZEN7_f4k-92" value="" style="endArrow=classic;html=1;rounded=0;exitX=1;exitY=0.5;exitDx=0;exitDy=0;entryX=0;entryY=0.5;entryDx=0;entryDy=0;" parent="1" source="GygV4am77YOdZEN7_f4k-48" target="GygV4am77YOdZEN7_f4k-49" edge="1">
          <mxGeometry width="50" height="50" relative="1" as="geometry">
            <mxPoint x="690" y="490" as="sourcePoint" />
            <mxPoint x="740" y="440" as="targetPoint" />
          </mxGeometry>
        </mxCell>
        <mxCell id="GygV4am77YOdZEN7_f4k-93" value="" style="endArrow=classic;html=1;rounded=0;exitX=1;exitY=0.5;exitDx=0;exitDy=0;exitPerimeter=0;entryX=0;entryY=0.75;entryDx=0;entryDy=0;" parent="1" source="GygV4am77YOdZEN7_f4k-37" target="GygV4am77YOdZEN7_f4k-49" edge="1">
          <mxGeometry width="50" height="50" relative="1" as="geometry">
            <mxPoint x="690" y="490" as="sourcePoint" />
            <mxPoint x="740" y="440" as="targetPoint" />
          </mxGeometry>
        </mxCell>
        <mxCell id="GygV4am77YOdZEN7_f4k-94" value="" style="endArrow=none;html=1;rounded=0;exitX=0.75;exitY=1;exitDx=0;exitDy=0;entryX=0;entryY=0.5;entryDx=0;entryDy=0;entryPerimeter=0;endFill=0;" parent="1" source="GygV4am77YOdZEN7_f4k-48" target="GygV4am77YOdZEN7_f4k-37" edge="1">
          <mxGeometry width="50" height="50" relative="1" as="geometry">
            <mxPoint x="690" y="490" as="sourcePoint" />
            <mxPoint x="740" y="440" as="targetPoint" />
            <Array as="points">
              <mxPoint x="320" y="600" />
            </Array>
          </mxGeometry>
        </mxCell>
        <mxCell id="GygV4am77YOdZEN7_f4k-95" value="" style="endArrow=none;html=1;rounded=0;exitX=0.25;exitY=1;exitDx=0;exitDy=0;entryX=0;entryY=0.75;entryDx=0;entryDy=0;entryPerimeter=0;endFill=0;" parent="1" source="GygV4am77YOdZEN7_f4k-48" target="GygV4am77YOdZEN7_f4k-37" edge="1">
          <mxGeometry width="50" height="50" relative="1" as="geometry">
            <mxPoint x="690" y="490" as="sourcePoint" />
            <mxPoint x="740" y="440" as="targetPoint" />
            <Array as="points">
              <mxPoint x="240" y="635" />
              <mxPoint x="310" y="653" />
            </Array>
          </mxGeometry>
        </mxCell>
        <mxCell id="GygV4am77YOdZEN7_f4k-116" value="Deployment" style="fillColor=none;strokeColor=#5A6C86;dashed=1;verticalAlign=top;fontStyle=0;fontColor=#5A6C86;whiteSpace=wrap;html=1;" parent="1" vertex="1">
          <mxGeometry x="831" y="506" width="445" height="100" as="geometry" />
        </mxCell>
        <mxCell id="GygV4am77YOdZEN7_f4k-129" value="" style="endArrow=classic;html=1;rounded=0;exitX=1;exitY=0.5;exitDx=0;exitDy=0;entryX=0.004;entryY=0.026;entryDx=0;entryDy=0;entryPerimeter=0;" parent="1" source="GygV4am77YOdZEN7_f4k-60" target="GygV4am77YOdZEN7_f4k-66" edge="1">
          <mxGeometry width="50" height="50" relative="1" as="geometry">
            <mxPoint x="580" y="100" as="sourcePoint" />
            <mxPoint x="630" y="50" as="targetPoint" />
          </mxGeometry>
        </mxCell>
        <mxCell id="GygV4am77YOdZEN7_f4k-131" value="" style="endArrow=none;html=1;rounded=0;entryX=0;entryY=0.5;entryDx=0;entryDy=0;endFill=0;" parent="1" source="GygV4am77YOdZEN7_f4k-49" target="GygV4am77YOdZEN7_f4k-130" edge="1">
          <mxGeometry width="50" height="50" relative="1" as="geometry">
            <mxPoint x="600" y="517" as="sourcePoint" />
            <mxPoint x="790" y="550" as="targetPoint" />
          </mxGeometry>
        </mxCell>
        <mxCell id="GygV4am77YOdZEN7_f4k-130" value="" style="shape=image;verticalLabelPosition=bottom;labelBackgroundColor=default;verticalAlign=top;aspect=fixed;imageAspect=0;image=data:image/png,iVBORw0KGgoAAAANSUhEUgAAANEAAADxCAMAAABiSKLrAAAAulBMVEX///8PFokAAIMAAIGoqtALE4jc3ekAAIYAAIIAAH6usNMAA4YKEojKy+IADIfv7/mSlcWztNQvNJWPksXX2etkaK+8vdpeYq4WHo5zdrQACIbExt/y8/kyOZr3+PsiKJBKTp5naahRVKHl5vNSVaibnsvS0+chJ5ApLpPAwdxvcrVDSaMwNJMVHZA8QZ1BRJmGicB8f7l0d7Z/gbWnqMtvcrEAAHWXmMNOUZ08QJd5e7KeoMdna7NITaTweilqAAAOWklEQVR4nO1d+3eiOhCWYAxKDLU+oEjRSuuj21rt3t7ervX//7eu1hfJAAoElT18Z8/+UDzJfHlMJpNJplQ6F4zFY3vinq267NHqq8xGv51LyyEN3pgoK6C7SwsiDe9I+YE2ubQkktDFeMPI7huXlkUK3A+ibEEalxZGCioU7xjZg79C390gZQ/Nu7Q0MnBLD4xQ89LSSMBQxwdGdv/S4khAmRwIKfS2dWl50uO3nxFm+dd2jmn7GClocWmBUqPiVwyrFWmee/3dsrGfEXvMvbla1/yEFDrKvSG0QBwjheSe0UxgpObeangmAqP6pSVKC155ryy72qUlSotfjGeEypeWKC3uRUZPl5YoLfgF9joYpVNOkhml15TunCCybCQvSOKoay16BOlpNcuNhlcGszZeJDXHgGZIaqp6M1tb7e8p6SQsYIMW2wwaSqyEGxtZ2rvGyMZAtKepLMOGupOEWcmGi5wV1rkj+/mIUtlRzYMNQ5NtBKRYQV6fHCx4NdU22C8PRu0ErVPjGeEklmp96u9odRi/hANuOHmQGV8cCbuJYU9P3ct7THh50CC2PJwraDUdl7HndXfMKRdMU80jYQe66qW4c0ncld/FLcCzeG2ZoE244pbicvIQUyKnzQlE/okpQeVFUP9pnZh/BOWrkHnMEgTvVtz1sQ8ESGk0lMUCcdztQI3zQL7EnNZtQfnHL0GEQbBY5DjWemB0qd9LbMarvszE6vWYJUB8i52ksNfjU8k1vEptbi7HlmL5ZcK9wXOz43nGabNxSKhYe/pzwjpgpKAjU6nV+HyYYhUhm1GK+UbGjCANWf27xeS4ynKWtlg3u0/twXTaulgqtkOd145Xa3+NGCFgtHCgq18oL4OnSjSrJmzNtHphjQZgtBp3gZI4k8WAaDqjkWz27UJthKY3nfD1sg7msMK+ZDjHpgxIg2bgV27r400h9klkfBIiNm3XgweSC8ecot1IIFTqiAp0NWosYU9QqU3RkZEWAkyJ1vsMMj4XcMxRS8o5gGsGDGcu2MKbvxDYkaeDolEbrLzGGyySSHKNDUdAh/o2bk7X1BD8QUxOujoWnBlNDfxKb8s6qpkHFL5b6DoDHaqOJGDkq+wT2KCwlaryjjzfwBzFdD1M3OFYjasMIjhppLFXokGaW+JBe9cCDba2WFsPLM30gaBksF3qPDiL5MbglMG4w2w4Y3DBSAubTH9maAMoWGyn2o0DPIAaWA8d40MZY7atE4JWIIT8WEVHOelNA7r55LuXvT6cStFsdKSPpm/9/wbt5/nspjmbv38P+l9jS0fEjlSNmPQ6nir+lfyRfSTdgmZwKBmGNDJufzbqnmgtGa1uY/F7MKoiPaK3KAF2CpnKP+3ssJMoUcJu+7OOEbVfcJzWk/kSZTOJVbFxFoedtaPzRsG6Nv7dOM2z4U4+TYJOs2qZJVcr7PAZTQkTQs1JnLZ0Kjcj+4TRzEg3E0Jrp0MEJdt+qCUY690/42N9z3rZnUY/hVWOiTYdJlRG3oygqIWaoWyG3AZzaJusQfBDqlrL/fDe1++zDGB7ClqEMFHNpP2zg7EgIfa7Pa7IkT0I7ixoFjP9WUYjGs1RUP/TaZY9dBcwNDAaywq5GLbVgAbTpXgWAuHO4e5csV/fJUaXLcYB3UTesuqlD1gbRvdy9WqrHTCbyDSTXnLF08d1BylN2caWW+4F7PQGWVAKGHKkn8VK3mrD2Yr68iktwNKK0SCb+Ez3CWpUZMquqwbsbmxnF13fGcHt3ofcKobAzcC0LIPKhgS4l2R6TUqlSk9sM/0220hGbyBOWyzL+bgG9KmiLC2THxiP4racjuQtS0DNJQlriAu3Kao8ZsnSDh1x76xbZwlwvhEbUlY4f0vUCvY06yG3hehVxUTOnYu+qnNA+EyESu6zUDVJF+O0xcRs8/g+3wUiZy7UbTZzf42kQIECBQoUKFCgQIECBQoU+HthVPwQN/H8V+GjWzkC/ucO9+24523zu9PdaLtym1V1j+qreNw9831V/xVK7/6rRqEqxMh2if/j8YPOn9KrJx8cPaGf35c5Lx98Jqbp9wFWBUZ1EF3FO3WF2Pm6/7IBOv58S3XjdDzxXPl944BFtatnpOinBAQ5z9vTrTwwUtjo6M0Pd7lzvuaCkUK1I3ewvP5ezHwwUqgSeXLkTQ+nZzlhpNDqZ7hzuO4PgcgLIwUzePFkT8gfPpsbRgpWQ87Kazp3niqT0ToOmgO5lchotTAFUioL8awSGeFpX4RwFbibjpFC7qH5cCMGPkhkRMuOIUBo07SMFPImWpYzEJwikdHxV+lSjroVdP6w3JnDCNOcMVLssW+tdcHV3xwyUtihGi+IUP4YKdTe3gbx3oIIAUYvV89IoeRz/bH1FhzSDPqozissZyaRUWpdtwFGc7dUZyH37ARGirUc8ODeiojW3kffKJDTR8o68qQDAq/CGCnM5sGtX9Er7NLkAQwxSX20pqSFXrQAjCIRbQUxW7c3/37+Q8vM+igKMhkJYI8Fo4LRuRnZgFEqzUCDlx9lPX9zyYiZ4EWcLcjyiSs3L6OO3JUCDO31h4FRV3LKCIatKps3s7p5ZbR+f0JcWMn6eanMGFHe2kDyGZXKNmf8YO1jve+PZsT0/cr/s/jHsILehPBL8P5OGs2wfbCj3vMpNkw3hlYkI+tRMM6mp1uqZdfhAFyGEhj5vY20uo0rjmIE90c3V7I/2j+q4nxtKVFrdwIVyehq97CHZ2K29ykY2R9Y5J1RqbS+b2WPD/dQ8s/InSPid3NdjpEMzbCV6svvirwWRjfDugDx0nM4oxLnrb0SRtjqCRiJLwdGMOLLzYpRPM/Jan0UwEZXxoj2H0TcRZy2QNDelTFaGVAC0DjnjKCIUWd8BaOCUcGoYFQwKhhxjJpVtIcKLm7PfF+RGANZ93+EUEdiDKQW9XMNC4z+9X2sPoczmvjLrZZLw7IP4I0p7quYQsNblCMh2K5e9K/LNSH+gSs94q0OvtxzXT4uUKBAgQIFChQoUKBAgQIFChT4gdHoCDjXU2KGWHFHzqvYhkn4m0X+s/csYZg6X7H+Kqlib8QwB0bO0UuOifhqMUqXGNaHjhitx26zfBR9AwM+pxnhh4yLJzGon2nHAxLSoUJEQvpA4mt8bh8JxVMsJftVKLpj8SIBs6Q+Tex8ib2ENekvBftQA0+Xs57kudu6BVlbsnmi+gdNkMyJhufLS4rWK7hPQsbZ6AfPhO9UkwzStncsmGFpJOd9Ux5l+LI8lvvM8g4T+Oo2Jabslcn70EHL4bQZYcNQg5m3FEIWUl/0nVgBkeqxM9KejIYN72ZhMpX3tLz7rATUgGbZPQtbg3NpnVXlTtLQa9wHdBC2Qu/9y8DkFWaaXJknLzMJQ2/YhjNIWefXzfYkstUPqpUhNE+pyYdtNSQXDUVZ5T7aoB3USevBbv1OMfbqH6+hN4wUamX4JL+zDL1nQUm1XU80+LzJbVj/bIuuZpY2wQlIQuoDIYNm7D3Z8GZ6NG0pZhlRcqeRhJR1rLw9nrVO7inHq031U9KwZrTGus8nXO3BFJH+5ylz2et8mq/aiUlyMctiLoUk3IJgRPkymx1PfEZjB9fxJu/9MY5InchEppRI25LvUY5xnxMzG2loNJj9U2t0usPKOtug6xhea9jt1D7b90QlUemlMXoDGSEolW3p119Bg+pHRgy1CSK6Yo1fvt7+6/ffvqa3PYsSpB9JwGfTd6cERrj9S+5+zIDJYcidHrw48cCY7p/eAfnYg9oBPa4V5jMY46gtldEfmEz1l1FfolM4xQElr08/ujIgVzmSqR0CEm3/JHevmalzRvNCj3cmovsAqqSyPJArGHBrxDZXN5yypcnqp9UUax/M0hpsRP1LGqMBLF3b7/wXAyKDE0Uvc27u38OlV5XlU5vAdZC+HhYbo7PUTk+HGwhsa+xT2DY0YEpxGvBUVRI4S5iQmPDeptbdFKaVOhkUKYMnsFF123BkIDkb9BpsLBu4bL2aqaHTsvxywIyo1qwbZF7U4dDAREYnObcB3pmgzZDX7PdIvOHHkPL13gnzIwRlzJORIS1Ac4d2/vCfj5GK7FNSDVOqI/TrZhLhbDagcsBWeg1uLEGxLCIto+sMm4MXZWX/hA/BlXlE9NFLe3HsNd8GHHcSXF0TOIvUY05oZ1L+/FhaSEWICC4xpqlkPPizKJ9keMJxh0nqE4RH6MM/ycByDa/SLTefB7/87cz6naHnwYv0ITDuQe2pEwF6wL6y+/FaaejvJNaPV32rJ45dO2YJAEAv0Lh5nJ/8JdC4Bxrlqrj3S3kkAgxGqhx9J1gA/44MiXsQNBNX7pTJEyu3fK9jFPckxxjwT57GPaFxvwXVRO5S+cGHfBclOMmp8DOBPMeWR7CT6X0qbcebi5jEd6u3eHnYMrY8hol4IVJ52blnBhOdtQnrGX2NL4/L95KayrZ795VFEx0eLoRFEiVoYefbfw6jpjqt8PWRrSdSMqKbL5k8Hz4LOF0fNXb3DzFaxlXbG7QF7asmOzxZWLulPsm49aGy8WpRoiTNtC4aulrCFPTeQN84CFE67V2qEcJs9Jr8ZHIqMIq9IO0xMVeyMAQuucZF/Xv6OAPpQk6HuMeJvUQf4Ay/l9P3i9+nvBXf4M4gfOS8+PsYSRx1V4JfIqMsU7efBaawCz2W4uP6IR6bqNnHuGaMpmDXpbNhrgGC+xrrZ0nfniWGfB/R2wzjW8+DFu9gtQe5Z+Txhh35fWmBUkPwJpGEpvc1oelnhJXcL0crZcd5IL9yr+pWewDbpxp089LiyIB/F5vaD38VWPjW2HS+tmuBd/CqEol3iC6JvbbDNNso2rOhtQtZIe3sgtHPi61fleq5t7t3cB/WXl6a8uTnquDOENLsv8Bc8KG7KJ/jzun/dwVJw5YX1gcAAAAASUVORK5CYII=;" parent="1" vertex="1">
          <mxGeometry x="640" y="480" width="69.38" height="80" as="geometry" />
        </mxCell>
        <mxCell id="GygV4am77YOdZEN7_f4k-136" value="" style="shape=image;verticalLabelPosition=bottom;labelBackgroundColor=default;verticalAlign=top;aspect=fixed;imageAspect=0;image=data:image/jpeg,/9j/4AAQSkZJRgABAQAAAQABAAD/2wCEAAkGBxMTEhMTEhIWFRUXFxcYGBgXFxcVFxoYFxcWFhcaGBgYHSkhGBomIBUVITEhJSkrLy4uFx8zODMtNygtLisBCgoKDg0OGxAQGy0mICUtLy0yLS8tNS0yLi81Ly0vLy8vLi0tLTctLy8tLy0tLy0rKy0tMC0tLS0tMC0tNS0tL//AABEIAOMA3gMBIgACEQEDEQH/xAAcAAEAAgMBAQEAAAAAAAAAAAAABgcDBAUCAQj/xABOEAABAwEFBAYFCAcFBQkAAAABAAIDEQQFEiExBkFRYQcTInGBkTJCUqGxIzVicoKSwdEUM3Oys9LwFjSiwuEXQ1NUdBUkY2STlOLj8f/EABoBAQADAQEBAAAAAAAAAAAAAAAEBQYDAQL/xAAzEQACAQMABgkDBQADAAAAAAAAAQIDBBEFITFBUZESYXGBobHB0fATMuEUIiNC8TRSYv/aAAwDAQACEQMRAD8AvFERAEREAREQBERAEREAREQBalvtzIYzJIaNHmTuAG8lbaq7a2+jPIWtPyTCQ3gToXeO7l3lR7muqMM73sJtjZu5qY/qtr+b3+Txfm0c1odkTGwGrQ0kaaFxGrvhu4ru7MbWkkRWk65Nk07g/wDm8+KhCKmhc1Iz6edfn86jT1LGhOl9Po4S2Y2r517S7kUU2IvcyxmJ5q+MChOrmaDvI08QpWr2lUVSKkjI16MqNR05bV8T7wiIuhxCIiAIiIAiIgCIiAIiIAiIgCIiAIo/b9rLNHUYzIeEYxD7xo3yK4s+33sWfxc/8A38VHnd0YbZctfkTaejrmprUH36vPBOkVfjb2XfCzzcFu2XbyM/rInN5tcHe4gL5V7RbxnwZ0loq6j/AFz2Ne5M1jfIACSQANScgotee2sLWDqAZHEbwWtb9beTyHmFDL0via0GsjyRuaMmDub+JzXxVvqcPt1vw5/6fdtomtV1z/auvby/wmm0W08IikjikxyOBaC0EtFcicWhyrpXOir1EVVWryqvMjRWtpTtouMN+3IREXEkm1dV4vs8gljpiAIoQSCDqCARyPgFKrHt7/xYfFjqf4XfmoWi7U7ipTWIsjV7OhWeakcvjr9GWpd20dnmoGyYSfVf2T4VyJ7iVq3ptfBES1tZXD2fRB5uP4VVaopD0hUccYWeJBjoa3U8ttrh+V86yWybeSn0YWAcy53vFFKtnL0/SYRIQA4EtcBoCM8q7iCD4qqFMOjich8zNxaHfdOE/vDyX1a3NSVVRk8pnxpGwoxt3KnHDWH3Zw/MnyIiuDNBERAEREAREQBERAFrW79XJ9R3wK2V5LaihTGdR6nh5KSC+r1LEWktOrSWnvBofgvKyy2G/bywiIvTwIiIAilFx7HPkAfMSxhzA/3hHj6PjU8lNLuueGD9XGAfaObvvHPwUylY1J63qXX7FZc6VoUX0V+59Wzn7ZK1suz1pkzZA+nF1GD/ABkV8F1I9h7SdXRDvcfwaVZCKbHR9JbW387Crnpqu/tSXN+voV1/YS0f8SL7zv5FrWjYy1N9FrX9zx/morORevR9HG/n75PlaZuE9i5fkpm12GWI0ljc36zSAe46HwWurqfGCCCAQdQcwo5e+yEMlTGOqfy9A97d3hTxUaro6S1weep6vngTqGmqcnirHo9a1r38yuFKujxzRM+rgHFlGjjmC6nMUGX5Lh3rdMtndhkbSujhm13cfw1WlG8tIc0kEEEEZEEaEKHTk6VRSa1rcWdaEbii4xlqktq1/Osu1Fwdl77Fpj7VBKygeOPBw5H3GvJd5aGE1OKlHYYyrSlSm4TWtBERfRzCIiAIiIAiIgCIiAqzbKxdVa3mmT/lB9r0veHLiKyNtbp62HrGir4qnmWesPCgPgeKrjCs/d0/p1Wtz1/O82OjrhVreL3rU+73PiL7hX3Co2Sdk8qebIbNhoE8wq45safVG5xHtcBu79ONsdc3XSY3isbKHk53qt7t58OKstWdjbKX8ku739ii0tfOP8FN9r9O/fy4hERWxnQiLTtl4RQj5SRrOAJzPcNSvG0llnsYuTwllm4ijsu2NlGhe7mGEfvUXxu2VlOpeO9n5VXH9VR/7LmiT+hucZ+nLkSNFzLHfUElAyZhJ0BOF33XUK6a7RkpLMXkjyhKDxJNPr1Gva7KyRhZI0OadQf6yPNVrtLs86zuxNq6InsneD7LufPerSWC0wNe0seA5rhQg6EKPcW8ay69z+biXZX07aXGL2r26/PeVLcl5Os8zJG7snD2mn0h/W8BW3BM17WuaatcAQeIIqCqt2iuZ1nlLdWHNjuI4HmND4HepbsHbscLoyc4zl9R2Y8ji9yhWNRwqOlL4y10tSjVoxuKe7yezk9XhuJWiIrYzoREQBERAEREAREQGva7SGRvedGtLvIVVQOzJOWeeWQ8BuVj7azYbK4e25rf8x9zVXeFUmk6n8ijwXn/AIjR6Gp9GlKfF+C/1mKiALLhXS2csnWWmJp0xYj3N7XvpTxVfBdKSit7xzLWdRQi5PYlnkT64LAIIWMp2qYnfWdmfLTuAXURFqYxUUorYjEzm5yc5bXrC8PeACSaAZknIAL2oPtpfBLjZ2Hsj9YRvPs9w38+5c69eNGHSZ2tbeVeooLvfBHm/wDa5xJZZjhboZN5+rwHPXuUTeSSS4kk6kmpPeTqvtF2Lr2bmmAcAGMOjn5V7hqfgs/KpVuJ8Xw4e3fzNTThQtKe6K4vf2vf2HDolFNmbCjfPnyZ/wDJa1q2JkGccjX8iCw+Go+C6OyuF/XxXoz4WkrZvHT8GvQiZauxdO0c8FAHY2ew81H2Tq34clo2yxSROwyMLDwO/uOhHcsOFR4zlTllPD+bfZkmahVjiSTXPl+C0LnvmK0tqw0cPSYfSH5jmF1FUFlndG8PY4tc3Qj+sxyVkXDe7bRHXR4oHt4HiORV1Z3qrftl93n+eozd/o/6H76euPl+OD7mNobrE8Lmj0h2mH6Q3dx08VDNirQWWsA5Yw5h8sQrzq0DxVlKCX1ZOpt8Txk172PPfjAePx+0vLyn0ZwrLc0n88Dro6r0qc7d702uWv35k7REViU4REQBERAEREAWOSQAEkgAZknIAc15mmaxpc4gNAqSVAL+vt87qCrYho3jzdxPLd71FuruNCOvW9y+biVaWkriWrUltfzebG117xzYGREkNJJdTImlBTjvzUbwrLRKLOVq0qs3OW009ClGjBQjsRiwqTbBxVme72WU8XOH5FR6ilewIzn+x8XrtYvNxDtfk2cb+TVtPs9UiYoiLTmUNS8bT1cT5PZaT3mmQ86Kqnkkkk1JJJPEnMlWJtg6llcOLmj/ABV/BQKzwl7mtGrnBo73EAfFUWlZt1Yw4Lxbx6I0GiIqNKU+L8EvyyR7JXCHATyiufYadCR6x4jh58FNlhhhDGta0UDQAByAoFmVtb0I0YdBd/WynubiVeo5vu6l82hERdyOatusTJmFkjQ4HzB4g7iq8v65nWd9NWH0HceR+kP65WaudfVgE0Tmb9Wng4afl3EqHeWqrRyvuWz29usnWN5KhPD+17err9+KKvot65re6CVsg00cOLTqPxHMBapYvtFm41HFqUXrWtGnklJOMtj1MtiJ4cA4GoIBB4g5hcnaC6jMIi2gcx4OeXZPpab8mnwWLY+147PhOsZLfDUfGngu+tTFxuKSb2NGSfTtq2rbFhERdyOEREAREQBEWrbZS2N7mCrg0kAZ50yXjaSyz1LLSRFNr7zxv6lp7LT2ubuHcPjXgo3RZTnmc670wrH1rh1pupLf5fPc1lGmqMFCO7585GJFlwphXPpHXJiopJsO/wCUkb7TK/dI/mXAwrcui09VNG86A0P1TkfjXwXe1qqnWjN7n+PU4XMPqUZQ4r8lkIiLXGUONtTFisz6erhd5EV91VC7pIE0JOgkZ+8FZE0Yc0tcKhwII5EUKri8LG6KRzHbtDxG4hUelYShUjWWzZ3p5Xh5F3ouqnCVJvr7msMsxFyrivMTx5nttoHjnx7iuqrmnUjUipx2Mp5wlCTjLagiIvs+AiIgK1v2KlomA9sn73a/FaNF07+NbRMfpU8gB+C0KLHV2vqy7X5s11Fv6cc8F5IkewslHyt4hp+6SP8AMpiobsS35V5+h/mH5KZLRaMebZdr82UGkv8AkPsXkERFPIAREQBERAEREBGb82fxEyRDtauZoDzbwPLf8Yq5hBIIII1ByI7wrQXPvC64pfTbnucMj57/ABVReaMVR9Ok8Phuft6lla6QcF0amtcd69/Mr6iUUhtezEjf1ZDxw9E+/L3rk2mwyR+mxzd1SMq9+io6tvWpffFrxXNZXiW0LinU+2S+dW01KJRZaL5RcMnXJMtmrf1keBx7bKA8x6p/Dw5rtqubFanRPD2ajyI3g8lO7BbWzMD2HvG8HgVptG3irQ+nJ/uXiuPvz7KG+tvpz6cftfgzbXMve6mztzycPRd+B4hdNFY1KcakXGSymQ4TlCSlF60V7JZ5rM8E1YRo4Zg+OhHIrtWTardLGa8WfynTzUkewEUIBB3HMLQluSBxqYh4EtHk0hVisa9Fv9PU1cH8fgk+PEnu8o1V/PDXxXxefYaM21UYHZjeTzwtHnU/Bbly2ySVpdJGGCvZ1zHj4Z71lguiFmbYm14mrvLFWi6ClUaVx0ulVmuyK1d7ayRqs6HR6NOL7W9YWG0ThjXPOjQSfAVWZRjam8a/ItPAv+Ib+Pkul1cKhSdR93W93zgfFCi6s1Dn2EYkcXEuOpJJ7yaleKLLRfKLG5NPky3fbHwvD2HPeNxHAqfWG1NlYHt0O7eDvBVeUUh2QtNHvjOhGId4oD5in3Va6LunCr9JvVLwf52FdpCgpw6a2ryJYiItKUYREQBERAEREAREQBa1tszZGFjtCPI7iO5bKLyUVJYexnqbTyiu7VZnRvLHDMH/APCOSxUUyv272yML8g5gJryGZCiNFjb21dtU6O57H79a8fBaC2uFWhnfvMdFsWK1vidiYaHeNxHCi8UXyiixnKLTjqaO8sSWHsJhdt7xy0FcL/ZO/wCqd/xXVVd0W/ZL4mjyDsQ4O7Xv196vbbTSxisu9eq9uRV1tH76b7n7+5NUUdg2l9uPxafwP5rY/tHFwf5N/mVnDSVrJZU136vPBEdpWX9TtIuBNtI31GOd9YgfCq5FtvWSTKtG+y3IeO8rjW0tbU/tfSfV7+2T7p2NWT16u32R174vsMBbGau0J1De7iVFTnmdVlolFnLq8qXEulPdsXD5vflsLehRhRjiP+mKiUWRrK5AVJ0Uvui62xs7TQXnM1ANOAHcvuztJ3U3GLwltflzPLi5jRWXt4ERgsz3mjGlx7q+Z3KSXLcZjcJHntCtGjQVFNd+ui74C+q+tdFU6MlKT6TXcuWX4tlZXv51F0YrC5/OQREVqQAiIgCIiAIiIAiIgCIiA5t/SUgfzoPeK+6qiFFLdoB8ie9vxoorhWU03J/qUv8AyvORb2GPpPt9EeaJResKYVT5J2TylF6omFeKQyeaJResKYV7k8yeaJResKYUye5PNEZGSQAKk6Aar1hXc2XjzkdTQNAPfWvwCkWtH9RWjSzjO/GzVn0x3nKtV+nByNi57o6vtvzfuGob/qu0iLa0KEKEFCC1fNbKKpUlUl0pBERdj4CIiAIiIAiIgCIiAIiIAiIgNW8Iccb28Rl3jMfBQ+inSxdQ32R5BVOkdGfqpRlGXRwmtmetb1s18yVQufpJprJDYYHO9FpPhVdKy3G92bzgHmf9FJUXKhoOjB5qScvBck2/E+53039qx4/ORqQWFjG4Q0U31Fa+awzXRE71adxI92i6KK0lbUZRUHBNLYsLC7OHcRVUmnlNnGfcDNzneND+CxSXBkcL6ndUZLvIo8tF2kv6LuyvJnVXVZf2IO+MgkEUI1C84VLLbd7JMzk7iP6zC4touqRvq4hxbn7tVmrvRVeg8xTlHilnmls7cY7CwpXUJrXqZzaKU3LZ8EQrqe0fHT3UXLuy7y51XAhrdajUqSqy0HZyjmvNY3L1fourJHvKyf7F3hERaIrwiIgCIiAIiIAtS32+KFuOaRsbeLiB4Cup5BcrbDaNlihxEB0j6iNnEjUn6IqK94G9VPZbHbL0nLqmR3rPcaRxg6D6I+iBU68SgLHtHSRYWmjXSP5tjIH+Oi2bu28sMpDeu6sndI0sH3vRHmuDZOiuOnytpeXf+G1rR/ixV9y0r36LntBdZpsZ9iQBpPc8ZV7wO9AWgxwIqDUHQr2qo6OH26O1Os2FwiZnMyStI61wlnBxOgGRFTzVroAiIgCIiAIiIAiKtOkfa+SOQ2WzvLMIBleMnVcKhrT6uRBJGeY0oagWWio6DYm3zNEpi9LMGR7Q4g7yHGo8c1Zuw1wmx2UMeAJHOL5KZ5nICvJoA768UBJEREAREQBERAEREAREQBERAUbtda3228XsZn8oIIxuydgr3F2J1eB5K4LiuqOywshjGTRmd7nes53M/wCm5U9sV85wY9eskr9bBJ+NFeaAIoN0i2+3RPg/Q+toQ/H1cXWZgsw17Jpq5RD/ALdvn/zP/t//AK0Bc9F9VKT7RXuxpc99oa0audAGtG7MmOg1CknRpf8AarTPK2eYyNbHUAtYKOLgPVaN1UBv3j0gthtj7PJDRjHUdLjJoMIdXAGZ60pVaFp6VWA/J2Vzm8XyBh8g13xUO27+cLV9cfuNU+uHo5szIm/pLTLKRV3bc1rT7LQwitOJrXlogOvsdtG63MkkMHVNa4NBx48RpV3qilKt468lqbSbeWeyuMbQZpRkWtIDWng5+48gCRvotbbC2Mu2wiKyjqzI4tZQkltaukfUkmu4GuRcOChOw+yJtrnPkcWwsNCR6T3a4Wk6UBBJ5jjUAdxvSrJXOyNpwEpr54PwXb/2iWd1mkmjaTLHhJhe4McQ57WEtcAQ4DFXLPiBVbrtgbvLcPUU+kJJMXfXF/oq0202WdYZG0cXxPrgcdQRq11Mq567/AoC09jto/06J8nVdXhfgpjx17LXVrhFPS9yqva6UNvOdxGINmaSOIaGGniBRTfod/u0/wC3P8ONQzaRgde0jXCoNojBB0IJYCEBKP8AasP+UP8A6o/kU8u22iWCKcjAHxskIJ9EOaHUJ5V1Wj/ZGw/8pF90KGdKN7dU2Kww9hmAF4bkMA7MbBy7JJHJqA6F89JcEbi2zxmcj1q4I/smhLvKnArnWbpVdX5SyjDxZJmPBzaHzCxbEbBMmibaLVUtfmyMEtq3c5zhnnqACMqGudBJrd0e2GRpDIzE6mTmPcSO8OJB8vFAat69IkLIopYGddjLmuaX9W5hAB7Qwnj3ZZEqT3FeP6RZ4p8ODrG4sNcVOVaCvkqJv26ZLLO+GTVuhGjmn0XDkfcQRuV07CfN9l/Zj4lARqwdJ0bnP66AxtawkFr+sc5wc0BgbhAqak1Jp2VpzdKrsXYsow/SkOI+TaD3qCXXd7rRPHCzJ0j8NTuGZJ50AJ8FcNl2BsLI8DocZpm9znYieNQRh+zRAfNmdt4LW4R0MUp0Y4gh284Hb+4gHkpUqN212fNgtDOqc7A7txOr2mlpFRUb2nCQeY4K2LmvkSWFlqkyHVF8lNAWA9ZTxa5Aer/2ggsjMUz6E+ixub3U9kfiaDPVQi09Krq/J2UYfpyZnwDaDzKig6+87b9OQ782xxjOn1WjzJ4lWZYOj2xRtAfGZXUzc9zhXua0gD480Bp3H0kwSuDJ2GAnIOxY4/F1AW+IpzWrJ0mYZJI/0auBzm167XC4tr+r36rQ212BZFE60WTEGsFXxkl1GjVzHHPLUgk5V4UMBsuvh+SA7209nfYrxe5o0kE8fAhzsYHdXE3wKuW6LxjtELJojVrxXmDvaeBBqD3Lj7bbMi2xDCQ2ZlTG46GurHfRNBnuIHMGrrpvi13bM5lC017cUg7J3VFDrwc055ahAXuir6y9KkBHylnla7gwsePNxafcubfHSg9zS2yw9WT68hDnDuYMq8yT3IDe6WL8aI22Rhq5xD5OTWmrQeZIB7m8ws3RHdhZBLO4U61wDfqR1FfFznD7IUP2W2Ymt8vWyFwiLqySu9J53hhPpOOldB7jdNmgbGxrGNDWtAa0DQACgAQFJ7XfOk37ZnwYryVG7XfOk37ZnwYryQFZdMrD/wB0d6o64eJ6oj4HyXd6LJGmwNDdWySB3eXYhX7Lmrp7X3ELZZnRAgPBxxk6B4rSvIgkHvVTXDflou2d7SzfSWJ+VaaEHcc8nCoIO/JAXsoJ0uPb+iRtPpGYFvHJj8R7s6eIWB3SnBhys8uPgSwNr9atafZUC2gvqe2yOlkGTBk1tS2NhIHvJALjqacgALB6Hf7tP+3P8ONQ7aD53f8A9TH+8xTHod/u0/7c/wAONQ7aD53f/wBTH+8xAXeqU6Uo3C3yV9ZkZb3YcPxa5XWoR0k7MutMbZoW4pYgQWjV7DnQcXA1IG+rt9EBKrnka6zwuZ6BjYW04YRRbqpbZHbeSxt6p7OtiBNBXC9hrnhrqK17J371I7f0px4D1FneX7usLWtHPsOJd3Zd6A5HS9I02qID0hEMXcXuLR8T4qf7CfN9l/Zj4lUhb7RLM508pLi9xq8jIuoOyN2QpluFFd+wnzfZf2Y+JQFVbAfOVn+tJ/CkV5qjNgPnKz/Wk/hSK80BWPTL6Vk7pvjEt66WE7PuDdeptB8BJIT7gVo9MvpWTum+MSk3R2wG7YARUESgg7wZZEBB+iORotkgPpOhcG+D2EgeAr9kq4FRm0NzzXbag+MkMDsUMmuXsu+kBUEHUcipZd/SnHhHX2d+PeYi0tPOj3At7qnvQE8vORrYZXPpgDHl1dMIaa+5fnix6+H5KV7W7cSWxvUxMMcRIqK4nvNcgaaCtOyK1O/covFGQ4gggioIORBBoQeaA/R65953TBaAWzxNkA0qMx9Vwzb4FEQFMbZXbFBMWxNwtrpVzv3iVMtg9mLJIzrJIGvcKekXOb4sJwnxCIgLCYwCgAoAMgMl7REBXV93LA+2SSOZVxkYa4njczcDRWKiIAuPf1x2e0NJmia8tacLs2uGuQc0g05VoiICpLtuqJ9q6tzKs4YnD3g1Vm3pcFmjsckLIWtjdgLgKguIeyhc6uJxy1JX1EA2HsEcMMgjbhBkJOZOeBnErg3pcsDra6Qsq/rmGuJ2tWbq03IiAsNERARHbLZ6yyMkldC3rKekKtJ+thIxeNVBdhrlgtEobNHiHDE5v7pC+ogJxtjcsDo4I+qAYwvwtbVgFQNA0hdvZuBrLLC1oo0MyFSd/NEQEO2WuWBlqhexlHAvzxPOsb9xNN6sVEQEQ23u2Kc2frW4qCSnac3Xq6+iRwXW2Ts7Y7LExgo0dZQVJ/3jt5z3lEQHStdlZK0skY17Dq1wBB8Cqe24uWCCUiGPCK6YnO/eJREBO9idn7NHG2ZsLesPrGriPq4icPhRR627P2czSkx5mSQ+m/e8/SREB//Z;" parent="1" vertex="1">
          <mxGeometry x="861.02" y="842" width="78.24" height="80" as="geometry" />
        </mxCell>
        <mxCell id="GygV4am77YOdZEN7_f4k-143" value="" style="endArrow=classic;html=1;rounded=0;entryX=0.5;entryY=0;entryDx=0;entryDy=0;exitX=0.5;exitY=1;exitDx=0;exitDy=0;" parent="1" source="GygV4am77YOdZEN7_f4k-155" target="GygV4am77YOdZEN7_f4k-136" edge="1">
          <mxGeometry width="50" height="50" relative="1" as="geometry">
            <mxPoint x="900.1399999999999" y="800" as="sourcePoint" />
            <mxPoint x="1060" y="800" as="targetPoint" />
          </mxGeometry>
        </mxCell>
        <mxCell id="GygV4am77YOdZEN7_f4k-144" value="" style="endArrow=classic;html=1;rounded=0;exitX=0.153;exitY=1;exitDx=0;exitDy=0;exitPerimeter=0;entryX=0.5;entryY=0;entryDx=0;entryDy=0;" parent="1" source="GygV4am77YOdZEN7_f4k-116" edge="1">
          <mxGeometry width="50" height="50" relative="1" as="geometry">
            <mxPoint x="1080" y="660" as="sourcePoint" />
            <mxPoint x="900.1350000000002" y="720" as="targetPoint" />
          </mxGeometry>
        </mxCell>
        <mxCell id="GygV4am77YOdZEN7_f4k-145" value="" style="shape=image;verticalLabelPosition=bottom;labelBackgroundColor=default;verticalAlign=top;aspect=fixed;imageAspect=0;image=data:image/jpeg,/9j/4AAQSkZJRgABAQAAAQABAAD/2wCEAAkGBxMSEhUTERIVFhISEhIWFRcWFxgYFhgVFhgYGBUVExgaHSggGhopGxUXITEhJSkrLi4uFx8zOD8sNygtLisBCgoKDg0OGxAQGzUlICUvLS0vLy0tLS0tLS8tLS0tLy8rLS8tLTAtLS4tKy0tLS0tLS0tKy0tLy0tLS8tLTUvLf/AABEIAMABBwMBIgACEQEDEQH/xAAcAAEAAgMBAQEAAAAAAAAAAAAABgcDBQgEAgH/xABQEAABAwICBgMKCgUKBgMAAAABAAIDBBEFIQYSMUFRYQcTcQgiMjVygZGxsrMUMzRCUmJzdKHBIySCg/AXQ1SSoqPD0dPhJVNjhLTxFRbS/8QAGgEBAAIDAQAAAAAAAAAAAAAAAAMEAQIFBv/EADURAAIBAgMEBwcDBQAAAAAAAAABAgMRBCExEkFh8BNRcZGhscEFIkJygdHhFDIzFTQ1YvH/2gAMAwEAAhEDEQA/ALxREQBERAFWPSw6QTQZnq+rcWi+XWB3fHtsWKzlFukHCuvpHOaLyQHrG8SAO/b/AFbm3FoU+Gmo1U3zcirRcoNIr7CNM6ynsOs6xg+bL33od4Q9NuSneCaeU09my/oJD9M3YTyfs/rAKowvsLqVMLTnus+HNilGvOO/vOhmm+Y2FfSpLAdJaikIEb9aPfG/Nv7O9p7PxVl6PaVwVVgDqS/QcfZOx3r5Lm1sJOnnqueeriWqeJjN20fPPXwJEiIqxYCIiAIiIAiIgCIiAIiIAiIgCIiAIiIAiIgCIiAIiIAiIgCIiAIiICj9LsF+CVTmAfon9/Fw1D839k3HYBxWoCuHTrAvhdOdQXmiu+PifpM84HpDVTjCu3hq3SQz1WvPE5eIhsS4GUL6avwL7arBUl1E00c02kZaOpu9uwO+c3t+kO3Pt2Kw6SrZKwPjcHNOwj1HgeRVFBbfA8Zlp360brX2g5h3Jw/PaqdfBxnnDJ+DJqWMnS/fnHxX3XDXjuLnRaXAsdjqW973sgHfMJz7Wn5w5+my3S5UouL2ZLM61OpGpHai7phERam4REQBF5qyrZEwySvDGN2ucbD+OSheI9JUTTaCF0g+k86gPNosSfPZSU6U6n7Uaymo6k9RVvH0kyXzpmEcnkfjqlbag6QIH2Esb4zx8No8477+ypHhKyV9nuafkR/qKfWTJFrIMcpni7Z4+wvDT5wbFYqjSOkZ4U7P2Tr+zdRKnNuyi+5m7qQSu2rdpuEUVn03px4LXu52DR+Of4L5i0nmk+KonEbjrG3sZKX9JWtdxt2tLzK7x1BOyld8E35JksRaCnra4+FTMb2vH+d1tqXrNX9IGh1/mkkW/wA9qjnTcNWvo0/Ilp1lU0T+sWvNI9KIijJgiIgCIiAIiIAiIgCIiAKpukbR/qJfhEY/RTOOtbY2XafM7M9t+StleTEqFk8bopBdjxY/kRwINiDyU1Gq6Ur95FWpqpGxQrHLI1Z8bwl9LM6GTaM2u3OYfBcP4yIIXlZJxXbjJNXRxJXTszMFkCxsN19rYjZ7qCpIILSQ9pu0jI+ZWPo5pIJrMls2XcdzuzgeXo4CrmG2a2UTrgFRVqEaqs9eshhiJ4We1DR6rnTncXKiiGjmk17RTnvtjZD87hr8/wCOal64tWlKlLZkejw+Ip14bcH912hY5ZA0FziA1oJJOQAGZJ5LIq56S9I8vgkTszYzEbhtEfn2nlYbylKm6ktlEspWVyL6W6ROrZiQSIGEiJmzlruH0j+Ay430zQsbVlau5CKirIpVGS3Q3RdlYyR75HN1HBoDbXva+s64OWdvMVoJodR7mXB1HObcbDqki45Gyx08zmX1HObcWOqSLjgbbQtno9hDqqYRtyG17vosG09u4Ba5wcpSll5FWbUkoxWfmfWD4PNUu1Ym3A8JxyY3yj+QzU4w7QaFtjM90jt4HeD8O+/FSWgomQxtjibqsaMh6yeJ5r1Lm1cbUm7RyXiW6WBpxzmrvw7jxUuGQxfFxMaeIAv6dq9qIqjbbuy6kkrIIiLBkIiIAiIgCIiAIiIAiIgCIiAIiICP6XaPtq4bCwmZcxOPHex31TbzZHcqamhcxxY9pa5pIc07QRtBXQqhunWi3wlvXQj9OwZgfzjRu8objv2cLXMLiNj3ZaeRQxmG21tx18yqmmyzMm4rCRbI7RtvtvwKLp6HEcuo9rHg7CvdQu2jzrSr0UbyHZE7FlTIKs7xdyQAKVaOaRalopz3uxrzu5Hl6uzZBmzO4lfjnE7So6qjUjstfgq0MbPD1NuH4a485Ez0r07jiaYqVwfKbgyDNjOYOx7uzLjwVXPcSSSSSSSScyScySd5W0qaQOzGTv7J8r/Na+Snc3aP2vm+la0acKatE9Lh/aFLErJ2l1P061xPloWZoWNoXpijJ2D/APKnNq0lBXlkj6YFbmh+C/BYBrD9LJZ0nL6LfMD6SVFNAsD15OteLtiIPa7cByG3/wBqzFzcbX2vcX158f8AhtgIqoum3aL1fZuXfvCIioHSCIiAIiIAiIgCIiAIiIAiIgCIiAIiIAiIgCIiAg+m2iHXXnpxaba9g2Scx9b19qrJzSCQQQQSCDkQRtBHFdCqJ6V6IMqgZI7Mn4/Ndyfbfz9auUMTs+7LQ5mNwO379PXq6/z5lSr00gzJ5L8r6KSB5jmYWPG48OIOwjmMlmpmWHbmuhqebxD2YtPsM4X6v0L8WDmsIiLBgW5D0LNTQOke1jBdzyABzKwqc6A4PYGoeMzdsd+GxzvyHn4rSrNQjcuYPDSxVZU9299S5yJRhOHtgibE35ozPEnwj6V70Rclu7uz3kYqKUYqyWQREWDYIiIAiIgCIiAIiIAiIgCIiAIiIAiIgCIiAIiIAiLXY1ijKaMvdmTk1u9x4dnEoYclFXZpdPKiHqhG9jXyuzZfa0b3g7Rstz5gFV2Y7L311U+V7pJDdzjnw5AcAF43KWjVlHRnnsco4iV5Ls6+e0+F+IV+E9qvxrX1Rxp4K37ZH6v1YS4r0Ybh8lRI2KMXc7aTsa3e5x3Af7KXaWpGsJJuyeb6jZaNYSaqYNF+rZYyO4Dc0fW/3O5WtFGGtDWgBrRYAbABkAF4sFwxlNEIo92bnb3OO0n+MhZbJc2vV6SWWh7D2fgY4Wnb4nq/TsX53hERQF8IiIAiIgCIiAIiIAiIgCIiAIiIAiIgCIiAIiIAiKP4xpG2O7YrPfx+a3t4nkFrKSirs1lJRV2e/GMVZTtu7Nx8Fo2n/Ic1XWJ1z53l8hz3Dc0bg3kv2rndI4ue4ucdpP8AGQ5LyPUHSORzsRVc8txiesDlncsDlZgUJHwV8lfrlvsC0VlqbOdeOHiR3zh9Vp9Zy7VbjJJXZCqcqktmCuzUYZhslTII4m3O8nwWji48PWrSwHBY6WPVZm51i952uP5Abh+dyvVhuGxU7NSJuqN/Eni47yvaoqtZzy3HawmCjR96WcvLs+/oERFCXgiIgCIiAIiIAiIgCIiAIiIAiIgCIiAIiIAiIgC19bisUW113fRbmfPw86yVlF1mXWPaODSAPPlmtS/RnhL6W/7qtWnWWVOP1uvLIw77jVYpjckt2jvGHcNp8o7+xaVyk7tFn7pG+gr4/wDqTztlaP2SfzVXoq0neSK04TbIo9YHqbM0Ob86Zx7GgesleyHRWmbta5/lOPqbYKzTpSWpA8NNlcahJsASTsAFyewLb4folUy5uaI28XbfM0Z+mysWmpY4xaNjWj6oA9S9CtRyNo4GPxu/ZkR7CdFYILOI6yQfOdsB+q3YPPcqQoiNlyEIwVoqwREQ3CIiAIiIAiIgCIiAIiIAiIgCIiAIiIAiLSY1pVRUZ1aqqijda+q5w17HYdQXdbnZAbtFpNH9K6OuLxSTtlMYaX2DhYOvbwgOBXsxjFYaWIzVEgjiaWguN7AuNhs5kID3otRgWkVLWhzqWZsojIDi2+ROYBuBwW3QBERAEREAREQBERAEREAREQBERAERRzCdOMPqpWw09XHJK/W1WDWudVpcbXHBpPmQEjRF56uqZE0vkcGtFrk8zYbOaGG0ldnoReOhxCKYExPDg0gG18r9q9iCMlJXTugiIhkIiIAiLWUmN08jgyOUOc69gAdwud3AIaucYtJu19DZoiIbEC6XdMXYdSDqSBU1DiyInPVAAMkljtsCAObht2KmNCOjqqxfXqHS9XEXnWmlu90j9rtUXu/m4kbd5vbxdIunbsWfC50Ai6hrwAHl99cgk5gW8EKTaK9MpoaSGlZQNcIWaut1xbrEkuc63VmxJJO3egLM6NOjs4S6dxqRN17Yx8XqauoXH6br+F+CdOfiefy6f3rFKNFsXNZSQVJZqGeNr9UHW1b7r2F/Qov05+J5/Lp/esQEY7mv4is+2i9lyuZUz3NfxFZ9tF7LlaGldW+GiqpozaSGlnkYbA2eyNzmmxyOYCA2yKmehrT2uxCtlhq5WvjZSvkAEbG9+JImg3aAdjjlzVzIAixVDiGuI2hpI8wVIdFPSLiFbiMdPUzNdE6OUkCONpJa0kZtaDtQF6IijemmmFNhkIkqHEufcRxtzkkI26o3AXF3HIXG8gECSIub8X6csQkcfg7IYGbhq9Y/9pzsj5mhfeDdOddG4fCY4p499h1b/M5ve/2UB0aij+iGllPiMPXUztlhIx2T43Hc8eojI+YqQIAir7pC6T6fDCYWN6+rsCYwbNjvmDK7OxtmGjO1tgIKqWr6a8Vc67XQxj6LYgR6Xlx/FAdNoqN0T6dCXiPEomhpNuuhDu95vjJNxzafMVddNO2RjXxuDmPaHNc0gtc0i4c0jaCN6AzrlboR8dUv/cf+PKrB6YOkCuw+ubDSyNbG6mjeQ6Nru+L5ATci+xoVL6P41NRTsqKdwbLHrapIDh3zSw5HLY4oDtBaHTX5I/tj9tqqTo06S8RrcSp6aolY6KTrtYCNjSdWKR4zAuM2hW3pr8kf2x+21ZjqV8X/AAVPlfka/o98CXym+pS5VvgOPCljeAzWe4tIzs0ADaTt8y+36ZVF9rByDcvxzW8ots5+H9oUKNGMZPPh2ssVFD8J0yDiGztDb/OF7DtBzA53UuBvmNhWjVjpUcRTrR2oO59ItDpbiEkETXRGxL7HIHKx48wF9aKV0k8GvKbu13C9gMhbh2pbK5j9RHpei32vwN4qz0M+VxdknsOW60rx2WCbUjcA3UDrFoOed9vmUSoqx0LxJGQHNvYkA7RY7eRW8Y5PicnHYqm68P8AR598Xl3FvooLo7pHNNUxxyPBa7XuA1o2MJGY5gItJK2p18JXp4mDlDRO3gn6lU9O2j1LRTUzaSFsQfHIXBt8yHAAm5Vi6BaB4bPh1JLLRxPkkgY57jrXLiMyc1De6U+Po/sZfaarW6MvFVF92j9SwTG9w+ijgjbFCwMjjbqsaNgA3C6hXTn4nn8un96xT9QDpz8Tz+XT+9YgIx3NfxFZ9tF7LlZWnfi2u+41fuXqte5r+IrPtovZcrK078W133Gr9y9AUf3OPjGb7lJ72FdGLnPucfGM33KT3sK6MQGGr8B/kO9RXMvQP43i+yn9grpqr8B/kO9RXMvQP43i+yn9goDp5xtmdgXKuJVE2PYxqsdbr5DHFfZHTs1iDbkwOcRvJPFdP4wf1eb7GX2SuPtH8eqKGXr6WTq5dVzdbVY/J23J4I3cEB1VoxoXR0EYZBA3WAAdK8B0rzvLnW/AWA3BY9LNBqLEI3Nmha2S3ezMaGyNO46w8IfVNwuff5XcZ/pv9xT/AOmn8ruM/wBN/uKf/TQGTRWumwTGOqldZrJhBOL2a6J5FpOwAtkHZbeV0hpTivwSjqKmwJhhe8A7C4DvGntdYedcrRx1uM1oveWpmLA54Y1rQ1oDQ+TUaA1oaBnbcujOlzLBqvP+bjz/AHjEBRvRxow7GMQe6qe50bbzVDr988udky+4uJOY3NNrZLpXDsIgp4xFDBHGwC2qxgA8+WZ5naqb7mfbX9lJ/jq9EBT3TL0dwOppK2libFNCNeVrAGskjv37i0ZB4uXXG0A3ubW+O530hfJDNRSG4g1ZIb7Qx5Ie0cg6x/bKsfTzxZXfcav3T1SHc4n/AIjN9yk97CgOh3wtJuWgnmAVy10KNBxmlBFx+se4lXVS5W6EfHVL/wBx/wCPKgOpWxNGYaAewLS6a/JH9sfttW+Wh01+SP7Y/basx1K+L/gqfK/IiWi2DiokOv8AFxgFwGRJPgtvuGRv2c1YUVKxjdVrGhvAAWUa6PfAl8pnqKlyzN5lf2bSjGgpJZvV/UhOl2BMazr4mhtiNdoybYmwI4G5F+2/b7dBq8vidE43MJFvJdew8xB81lttJfks3kfmo10d+HN5Mfrcs3vEhlBUsdDYy2k7+PqkzYaf/EM+1HsuWXQT5N+8d6mrFp/8Qz7Uey5ZdBPk37x3qasfCbr/ACD+X7EhLBvA9CrTQ0frcXZL7DlZqrPQ35XF2Sew5ZjozGP/AJ6HzesCytUcAi+kWh1Cgu6U+Po/sZfaarW6MvFVF92j9Sq3uj4XOnpNVpNoZdgJ+c3grS6NBbCqIHI/Bo/UgJOoB05+J5/Lp/esU/UA6c/E8/l0/vWICMdzX8RWfbRey5WxjdEJ6eaA7J4ZYj+8YW/mqn7mv4is+2i9lyuZAcu9EWNNw7FNWp/RiRslM8uyEby9p7/gNeMNJ3XvsC6iVP8ASv0VOq5HVlAB17s5oSdUSEC2vGTkH5C4Ngdu2+tWtNpPjeGtEGvUwsb3rWSxBwAGQDOtYbN4AZIDobT3SOOgopZpHAPLHMiadr5XAhjQN+eZ4AEqlO55wx0mIvmt3lPA65+vIQ1g84Dz+ytPS6OYxjMwfK2Z3/VqNZkLGnbqXFrZeCwHsXQeg2ikWGUraeI6zidaWQixkkO11twysBuA3m5IG/niD2uadjmlp7CLFcsaH4icGxYfCQQ2GSSCfI+Abt1wNpF9V4ttAy2rqxVl0q9GQxH9ZptVlY1oDg7JkzRsDjueBkHb8gcrEAWJTSRyMa+Msex7Q5rm2LXNIuHNIyII3rN1Y4D0LlaDEcawfWjBqadgPguZrw3vmY9cOjzO9u1fX8rmM/03+5p/9NAdUNaBsCiHS/4nrPs2e8Yv3oqxmesw2Gepf1kz3TBztVrbhsjmjJoA2Abl+dL4/wCD1n2bPeMQFe9zNtr+yk/x1eao3uaWkGvuLZUn+OryQGi088WV33Gr909Uf3OPjKb7lJ72FXhp54srvuNX7p6pHudGEYlNcEfqUm7/AKsKA6LXKfRnKKLGoBUEM6qaaF5OwPcySIX4DXcM11YqV6W+i2WeV1bQNDnvzmhFgS7/AJkV8iSNrdt8xcmyAupajSmmMlLK0bbA/wBVwJ/AFUHodpDjUNVSU0rqpsBqadj2SxE2jdI0OaXSM1mjVJG3ILpNLmlSCnFwejVu8gWgle1kj4nG3W6pZ5QvdvaQfwU9UD0g0Ve1xkp26zSb6g2tPLj5swtd/wDOVkfeda4brFrSfSQpGtrNHJo4mWEj0VaLy0a49tudUiVaZV7Y4DHfv5bAD6oILnHlYW7SvD0fU5tLIdjixo81y71haegwKpqX60lw0nOR9725A5u9Sn9DSMijbGwWa0WHHmTzJzWHZKxJQjUxGI6eS2YpWV+eLv3Z6mh0/wDiGfaj2XLLoJ8m/eO9TVi0+aTAyw/nR7Lll0FFqbP/AJjvU1PhNl/fv5fsSNVjo24RVcevlque033EgjP0hWcoZpVo25zjNCNYuzezffiOPMeu6xHqN/aFKb2KkFdwd7dz9PXgTNFWTMSrYxqB8jQNxaHEcu+F0WdjiR/1WnvhLuX3R//Z;" parent="1" vertex="1">
          <mxGeometry x="1119.99" y="724" width="84.93" height="62" as="geometry" />
        </mxCell>
        <mxCell id="GygV4am77YOdZEN7_f4k-146" value="" style="endArrow=classic;html=1;rounded=0;exitX=0.157;exitY=1.03;exitDx=0;exitDy=0;exitPerimeter=0;entryX=0.25;entryY=0;entryDx=0;entryDy=0;" parent="1" source="GygV4am77YOdZEN7_f4k-116" target="GygV4am77YOdZEN7_f4k-145" edge="1">
          <mxGeometry width="50" height="50" relative="1" as="geometry">
            <mxPoint x="690" y="820" as="sourcePoint" />
            <mxPoint x="740" y="770" as="targetPoint" />
          </mxGeometry>
        </mxCell>
        <mxCell id="GygV4am77YOdZEN7_f4k-147" value="" style="endArrow=classic;html=1;rounded=0;exitX=0.791;exitY=0.99;exitDx=0;exitDy=0;exitPerimeter=0;entryX=0.5;entryY=0;entryDx=0;entryDy=0;" parent="1" source="GygV4am77YOdZEN7_f4k-116" target="GygV4am77YOdZEN7_f4k-155" edge="1">
          <mxGeometry width="50" height="50" relative="1" as="geometry">
            <mxPoint x="580" y="790" as="sourcePoint" />
            <mxPoint x="915.2024999999999" y="720" as="targetPoint" />
          </mxGeometry>
        </mxCell>
        <mxCell id="GygV4am77YOdZEN7_f4k-148" value="" style="endArrow=classic;html=1;rounded=0;exitX=0.798;exitY=1;exitDx=0;exitDy=0;exitPerimeter=0;entryX=0.75;entryY=0;entryDx=0;entryDy=0;" parent="1" source="GygV4am77YOdZEN7_f4k-116" target="GygV4am77YOdZEN7_f4k-145" edge="1">
          <mxGeometry width="50" height="50" relative="1" as="geometry">
            <mxPoint x="580" y="790" as="sourcePoint" />
            <mxPoint x="630" y="740" as="targetPoint" />
          </mxGeometry>
        </mxCell>
        <mxCell id="GygV4am77YOdZEN7_f4k-149" value="" style="shape=image;verticalLabelPosition=bottom;labelBackgroundColor=default;verticalAlign=top;aspect=fixed;imageAspect=0;image=data:image/png,iVBORw0KGgoAAAANSUhEUgAAATcAAACiCAMAAAATIHpEAAABI1BMVEX///8jHyAAAADwvxo+vrAHpd7XoikBm48SCw0cFxjNzMzvuwBTUVKNjI0aFRcfGxzl5+j4+PiZm53c3NwLAAIAlon058+WlZXVnAr77c1MSkrGxcWoqKgAod0VDxHo9PuZ0e25uLhfXl59fHxBPj/y8vKFhITY2Nh1dHS7urqko6Miuaqi29RqaWkwLS7Ix8f8897++vHquB744KY6r+EkDQAjGRaD0cez4ds7ODkuKitdW1z66cL114nyyE3zzF323Jf55rjmu1Toy5bdqibaqkL00XPt1q7iryPdsFXivHIASWmh1O8iKjCz3PEkAwB8xekPj78UfabV6/cYbZAbYH4dT2deuuUMmMsIM0WZsL1pyb7I6eVnt6+RycNDqqDB5+L9YtEXAAAKSElEQVR4nO2da3vayBWA0Th2RthoBMhRDLKy4iKQHCDeTWoDyW7bbbO9bLf3a9Ld/P9f0TO6jqSRIDaOSDnvl5hhJB29msuZgYc0GgiCIAiCIAiCIAiCIAiCIAiCIMjhcv3i4jVw8aLuQD4frl+/+fpU4JufX9Qd0v5z/RV3diQSuPtF3YHtNRff5JwJ7t5gly3h4usSa5G6t2hOwvUvK6RF5t7UHeT+8e3Tk19t8MbNva47zv3i+tdPT062EHd0+rbuUPeJJ9waZwtxX17XHe3e8F2sbRtxR6c4PYR8m2rbThzmwZyMtm3GOGxxnO8y2k5OfoPituFJTtvJyZdbiDs69MmhXdC23RD3Vd2B18xvi9q2yX8PfeGQH9y266kH39qupdo29NTTo4OfFX4n11bR4E5Pjw69sTUaL56WcVrC0VvMecHbkzIupLw49OwDQRDk/xq9imd56o52fyBV/P4yz8vv6w54P9CJUsEfjgtcXv5Qd8z7gGNUeftj0RuY+1PdQe8BLq3y9urPUnFf1B11/azVSm9/kXk7vvxr3WHXjsIqvf1N6u34Zd1h107ltKD87O9ybwff4NobvP2jxNuhZyPju3k7PvQptTp9K/f2z7oDrxn0djfu2E8xg8P59G5s8FaSv13WHXbt9O60Xjj0NKTRmNp38IbLhYZfuR/y6l+y1nbcrjvq+mlWDnCvZNqwtXGIQUsx/l3Y7718iduWAVangv98keX7H/ATBgRBEASRcntexuNHUt49f193zHvB4xLO5dqAq6sbTEga789LxJV64+pu6g67fv4rFVfe3CJz2FvlDW6Dt0dXH+qOu26kPXWTNhTXaPxYFHe1hTfsqcUhbgttt3VHvQf8dP7R2p7XHfNekBF3vrmXorYIURxq+wiEMQ7Hto/h9nzrwQ1nUpFnj8+3Snjf1R3o3vHj+flPm6xhY5PQvtkwJ+CEUMKzm6tSdVdorYL27SOZuqurdx/qDm3feXZ7A56uEmPw580H/H7DVrTf3z6/CXj+4T06QxAEQRAEQRAEQRBkX/Acp1l3DDtBtxzrE16uR4h7/7OYruvd/yz3okkM8gk3q85U2rr/WUYGMe9/lnvRJMpn4K1pWWID66kUvW1Di5Az4eWIkB202nvxmXij2kB42ez3u7uK6I58lt72APR2N9Db3fg8vJkH5a3p9mxij9xFWiR463qd4XqpEqIMfDGCtjWbE6It11PTmfA3LN8fqGwE/wCdRlDSEVYdznRkE200a1mTqETvrBVC2Ggw9D1hAgnj6bnCseOm1Zr1Vgaho2Fa3O34YZ4zMVdR8GNrtjQI60FQenAu8AYV/dncyN/APRn3CFUZY6pNlknwqbczQqit8t9zY5pB+slhJjG0sNSmhPB76RFDhddGAOF1xDzEIcRWg/qUhG2yPQtPweAUBiFxRV2IR4/KJoQYVAuigOJ1XLVPgus4c0JJaLMVnVKFoDqRN8NaRqVwAztbPepEU+Axzm1iKCqJW0LqbZb+DqqtKCQ2OyBgKCo3aFAM3rTYW6hByHtNoihafKJpoE2hcMH0FFXx6MRIomCKEYvr88bkMShioRCISrHjilbkTTHgUQXAcyPxo7gvqqoQfwx/jH2uouDN8b1md8zbt+4SRYvSWocoqmLp7XZb7y4cc8aj8RxnprGeE2BlvU0gfLL24ICxPukH9zilCu3FJVYrHhc1xoR4aFg4bln9ic5LG4sVU2Kd4E2dEQYPcOnyCCx+leEiPGfY87k3orT6vGzRo4o93Y0200gfQRfatJn3JuLaCgmCByNsJTtbdl5Iva01hTiZqm14CLPiGVpCPCDb6BRqjIlCoz0H8KaoKpn70RFU6BARfHxL++aZppDGToDTpvssLmVqdAGpNz0JAu7IKb6fz0MSbyAp/6BBiqzPENEvxKMUq0xtNWr13Bs5S7QEY1mucnY+5a8mjR2wIOID6Cb3UpKHwPvBur2deYopZd76xXgX0gQBKhrpK7lb34ht9rNhmLTYmnJ5iMTsnYCOJXaW2EuFN6fq+mXeJHfUlDpplcQjYmW8CW+sNfUsXznnbcl2s0Mz0Kg4gsyZ4Qd/bPK2gkRBsmQv8za1WS9XdcwnmUKDW2fjWcXxiJR6WzFa2GzNeRto9rAY9sezZJlxKtGV99bmc545tGNvMHwzcuZPcjde5m2tFeeAkQp5xszK2p9n48lt4I27TcdvnbESb9AJCpZz3qb2biZUGK+HVsqISbx1W70ox+LzVXhbbcWAqQySqtXUEnpbmbeeWnzMXZ4PQiZKRkNnvCkeyHxmShSFqpR7KwweOW9DWzaJfzw8TzRSmBLdaOqtvSZUo0aSN8bNoQXrCL48gFR/njSRMm8jJukeOqTUNgtWAGQ9KYsn7LYeVLWjKJQKb4VJvuhtJwtoCIJm/3OE/Pi2pNC03CD5zWUJixaswQjlyXocS2l7k3mDZ+K4IxLI06LrFuMJWpBH+EVMnvy2y8e3T+qNmt0MYZdJvEEKbrSE6rnsdbwwlyRthWXeztTyYUX3XM2IF0Al8VAY0pLhoMrbFv10J95gHJbmM8IEwUZiZKSY7kJoWrRiLPM209R14TiBTrwyWEnj4Tef7iiUejOUYpLxQN7WJftsiTeiiImB1BvYipNVk2YyqMSba0uXZSmjqEHK8x/LEP2UehtJWvUDeXNpMVXkCN7EMUPuzUvCN2kmT0u88Ruv3Ppy7bDJxv9m6VCFpq9KvUGWOM8f+kDevJLtUNGb0HE2eYMlEBPeSLw1pYm/QHw/jjQef7v25hvFJcgDeWunmwsZEm+MiW1ffvvpc/ayN5KmrTAfjgrHCayYHYTBNzuKHdXJrMlKvXV59pc79IG8NWawBCguZVJv02TriKcNycgrtgkrdd/NNsjUmws9bZZtSGPh7yGNB35pPLooZDJLNoNy3mD1o+S/WPFQ3vhP15O56fX7fc/xTTfeHY+9wXWZ6nS7Tc/sEf6rvOGm4pDMB27HcjyrNSfCLipPKFp9z/JdHmzqbRxsxM58x7FMdxacmpHRrOU7nmMNYSGirqrigTUZmTa7k4U1tYkGqXJvIvMWbO7SoeXAkcOB85De4NqawsJc0zCocZbz1pjFG+KwaiA2rLSCLX3omlqQvxuUJ61JkuCHiathBCaF5WWT364WHGAbQeiUqbAO4SWw3qJUT+JRi/F0CQv3vw1bI3wZoQbtKu8N8hnGFxzBVZLPFx7GW6Pb45+82DRcxSzDwlH6Pa4hD4K/ydxusLoKvIVLxXDtMxAGY6htB6W8QSyFz2X0QXBAcJlgzlVCM+Ep3PTesvFEo+KEkejYtdPoLokRrCP6UCHb+ZsQOA3DDS+9yFaZZr/Acj90x3Tdluk7zW58CV3Xk/FHt1puy++HctqeGQrV+daEy9/IRq5b7nRoWs127izQV70O1O84i1gznKLDT2HltkAl8YAAKDPjTxAnfvAhYRsuIL8ZODaKN1tlLDkCQRAEQRAEQRAEQRAEQRAEQRAEQZCD4H+PjyLPpl/PmwAAAABJRU5ErkJggg==;" parent="1" vertex="1">
          <mxGeometry x="1083.75" y="842" width="157.42" height="82" as="geometry" />
        </mxCell>
        <mxCell id="GygV4am77YOdZEN7_f4k-150" value="" style="endArrow=classic;html=1;rounded=0;exitX=0.5;exitY=1;exitDx=0;exitDy=0;entryX=0.5;entryY=0;entryDx=0;entryDy=0;" parent="1" source="GygV4am77YOdZEN7_f4k-145" target="GygV4am77YOdZEN7_f4k-149" edge="1">
          <mxGeometry width="50" height="50" relative="1" as="geometry">
            <mxPoint x="1100" y="830" as="sourcePoint" />
            <mxPoint x="1150" y="780" as="targetPoint" />
          </mxGeometry>
        </mxCell>
        <mxCell id="GygV4am77YOdZEN7_f4k-151" value="" style="shape=image;verticalLabelPosition=bottom;labelBackgroundColor=default;verticalAlign=top;aspect=fixed;imageAspect=0;image=data:image/png,iVBORw0KGgoAAAANSUhEUgAAAR0AAACxCAMAAADOHZloAAABUFBMVEX////+/v7sVo0AAAACAgJVvLAeGRtJpJb7+/uamprqUId2dnbpVo5VvK3x8fHf398lJSWCgoJNubGq39zS0tJAOz3mgqfo6OgYEBT99PzhcJtmZmYqKiqpqalJopfu7u6QkJBaWlo3Nze2trb3//8bGxtKpZRFRUWAgIDKysra2tqm19RbW1uenp6xsbExMTHBwcFlZWUUFBRLS0tNq53bVYciFxkfGB+57edTt7X6//lPsKbt//9wcHDhlLPrfanxzd/ehqn54u/vw9nvqMffVIX67vjab5bgY5LxudWiXnuVPmKnQ2i7THTPVYA9NTs0GyVMIjFkKj9/OFEIGRRbJTwYHhc+HCkmFRx1M0wnBxbVx9QQCRYqal5Mq46Oz8QeSkNyt6kVMzA/jH11zcIXLzLT9fQ4eW8RMShFlIMTGiKA1cgpWlUSFBsdRD8ZLjWpYOXzAAAUf0lEQVR4nO2d+0MTSZ7Aq+iEVMg7RgMS8u68JoGQQFQgnuMM7ng67u6syzFzOrqjy5xzOvf//3b17qruzruTYMNXBJJUqqs+/a3vqwoA4FZu5TpKFaITVIVEyEP6GWointVfY+9Wmp2cIFiFa5rF0gTCM1j1pCNQBUhy84lAgB7f80L+4969b5+sezZeCwQ797c8kCj+/+2O71QH7tyPRqMb0YXl/NtnVeQvPHgyO/c3Fpfoxtb9p1V/saHiAR2ifD88wY7rlo4rnY3z7yD0ncsCHq2s8+9x1FSFPrM7YHE6WHG2zrG7ItGg7+B4oTtbzF1hNr7DswCdKP/6l6dkUQG/kSGymO4Id+XDRUVlITokDDx+Dm/puMLBNge7K7+iAQvTOX/8zI++SshCdKLRe8/Qjh9TCC5z04kSOvefAv8aHbAInej5xvF3fkYDFllZOLt6jqqeVBbXJ6I4POIWL7CytnzgrpZFZyP67c4JQl85HbAUOjhGvv/MN4mn93R+eOqfzMpjOscb0SdVtNopLC7uDHQ0eoAyH53o+fMVF7u8WMNT05FPzEUnuvU9RKt1WF8THeKuVlvsWo/9n51O9HgLJxD+McnjZA7d2frhCfRx5qnKjHRokf07WMU2ed0jX4XMTuf8OfTfcYsRMuvKih4/3kGkyO5/wwPhzHS27j2DeGHh3PyWjm1VkezqqY+L7LpgDSAnVKwDKpPwbDB3dTPoUN2x0Eyks3H+HSZ6I9AAGoDilSV1Zjwd0owlEOse9qoE++b/fPHi5cuXP7569ep8ot15vHMC0Q1ZV4AoD/pr4HWv19vefvC3v//0D0zpOOpQoijbM8fuqmqdzr0Rgu5ub1IxzR6Rv/395xc/Hm9sHB9bdprx2vrLNal3rXAQkg7GY5L/RJH+6+eXr3Qvhr85flK9HmXktdAhfNingfn69eCfL15FxSEU8uX4OYDoWhwNXCedwcC8MAeXl73Xlz+9PGZWCH86/p7kD9di92oNdCiZzc0HZHENyHeDTRMvsRc/MvXZerxDznfd5JXFNcj6jI3Q5c/EAlF3dXNcuRQnHU0GA8znx+gPT7HNqV4T3VmhTKCDF9rF619++u8qq7Lf0nHqz5u3v747gzsr3oW4DjJpZZmbD7Y/h2q10DdnVfJTause72plAp3Li81f3tfyWGr/uqpyOjdHgSbQeWAOfvsUopLP3zlDiB74X/egVyYT6Fxs/vGhxujg5fUvjOfkBN6c5TXJ7rz5HS8qoTyho4eQ4LkxyjOBzvZbbHSE6mA+tXfVnXXpzhruyXg6258xkxDDk6/VavlQ/t3ZuuzOdaLz4IG5+eZPsarowqoRVLWPV2jVRwzWJqPpmJuDf38K2SQfisUYnptNB+ehDz4c6WiwxGLpWPCqenItKj0TZdFbOJLOwPzy+1FeYUOMcv40lk4/CsYeIuq4rj2hpdExFXcl6ZwG00HMJxh8WP0qfvp8aXS+vCc4dDqnMUwnGIs9Sgev4MnXgGdBcaEzIOX3wZ+fQlYcyL4cBZlgRuk0Ns0nOz78xSmauOrOxeCX//lU0xcWhnMaJKpD8WDbcwV9c5p7pLjRMc0Bzq5qR3kl2gnRdSWV5xF27Gc75NfurHsCSxUXOubFoIezK2J1JB387WnQEqxC6dj/Vq/HDs4SxY2O+eUzLemokU7tKGiX03dVn6uOnY6JPwbb70OEDvFSks5RTEeDo8J07CE97+5jQjqdwQWmc/nbJ7tBzueDMYfuxLBlJlGhj02zjQ725tv//mSLdLAIb6VJOvYRm56qj6uFOh1zYF6+/hBywInFXOjgqDB2h+3k3BA65uabtzaLTH25c13JqGcHXYvd9aWI3Wdtfw5RP67iOaWK4rayYumPVxCtsc68ZK21TjcxOH/yGEeh4/Tl1toKBu+stZqx5EWtn27C7spucohFHiM0H70JdAaD3h/Yl9vhnI6ng0PmNZ7RXRUd07y8/OP3WihUs8Nx8eUanqs11phXRmfz8svbml1xJmgOlkfBj2frqzKviM6Ab8/UNG81GQ6phj30bcSD6ZgD6rC23zs0Jz/aXSl0sPJAUmb24QYypvNg07y4uNj+7ZOmNvmxvlylkz59WPXp7jGhQw7hDn77cKQHyNi1u6SebpYnjS3PiS9rqMTuYIN8+eX3ml4KpDsQU+nOo2D6IfQvnYvBZe9tKG+vWpyOd+WCTixNLQ/c8WG6RVfW5pvPNl9F4Eyzqggd8vkKQj8mo8RnbV7+qZscQiqfns7qMEbvcOThS5/Vu9j+vw82Z54P1aYmQ+nEzvz065XlTLDuDP74YDPImM5068qicwecrOrn95d/F1Q61F3NZXQsiX1cXSq6UjpvPv9aC9ls8qxwMJ4zH9Hh16lC9Nf3Ghh6vmuKGNnG5lHwoe8CHpw8Vj9/svtyWmSfmc67a/KTf94JBPAsr0c6JCaMzUyHhD1n6zixstTiAMR0tHVFz3fNioapz9U6yhhLveYJPHOcfpsLTjqY/mY9dJbYN6bzq+7KCZw0FvppasF0Hq3Qp69GINWdWo06KiYzuyupPdinr3s+Xgu2O6qEjohBjs0sGM4jbHjWPRtvBS+FsxoXtrBmWk+WUER3fEaH/Mm0bzS5s4Bc+c3ueHU0CfdSBevYmVj0imOHDCH/VUxcEJxTTuB6fvXMopec8P55cYyQhYY6h3xVdBYa6TyynGvO3Oc1Nbi3dMbJLZ15Zfo1D/nf/pLtxFvWYSxWJGyGcIq/luKgyL5dmzVdhchZTUUH2OksdWxrFhLnVvqldgnLMD4haqQ6hsh/KP5mNQT7ESyNSCQVX82IVymETthgYo6lQ/Ukk+rXd/fiAFl0huLd2ZUNemXC6QSwGMmxd5+Q6AYoiH4CWHQiRoD+y/mQDpEp6SBQKHM9GSr2JkKewO/OFZY/0nXI1HS6Bm+JV9GNoDPDykKgY5A1RFZXQtCBt3RYSyjoYDytWzq2lpCtLPwPkxCG52bQMSbRgcwqU4xGQ/6o2bLoLD3KnKr/GejgATeT1GWVCla0vBw6y4/BvaZD7HKiM2xHKgjAJduda0Znst0BNIOgX5XzWYKOseSVtZ6EbjIdZVh4iAiRDyv9dNCZKV1X0lm312ZP/T2GOIGOPj6X8q9jZc00qZGVJed1pusT6vfSC1ZOu8OKXIj92Tixi2JdDckkXaWT5brFR4SQ26805TMmPSBgfW//A3XsSdohbaJOm1zE5QiU7NkqOiEvALnT0brVKoIqKDsdTCWbqVS6mSzFO4oOy2FRPB5HvHs7Hf4Nku1RolnZrzRbvILimIWiXbRfKN49JxUhI+iARFHIPrsZ8TB/3AVOOgcF4geajQOWqPbKxYxLeYw/EW/uRfo5E0uuvBvOILvFgLDArlRhb4jvt5OiUtLvZF3sFHs/au2nSgdJ3G/yoFTsFvh9nZcM6dROhy+nrMjIDSPD1lq2xx835PAYHRIhlrEaZEqGKocZsToldYRBZPdKPa2dkQtn7YqWYK/UySJCnaTWPJAqkIWrzJoutXglktP77Q2bYJHfBOBOh0ihT56joXGGu/JskiXpRspGh7TsI7DHc3gu+FGHuTjrYhB1d3uG3o40TO5pegYJHfoKXqGtPm9uWM2bQPtrL/hBK8XQqL2SGxkHcO6TmqPoAFQyGB3D6PLVT+iwy7rRacOwPmeWcxDjrFwMM+f92lumkPabMASdLsjkHP2S5xWYBHpRkBFtOVBSqvOYDh7okMQwtPsKgDodp+6Q54YVnsFrQ8RNNd2J9w3tZX4V8m1Rsz0JPtdwNmc4qQcMMwEUOoiFJWzAtrb1wtznWF3pYDgRgxdEjT3Lz4yl0y4z+2Mo+m1QuKrugAqftWJFxKy6qu0RdPp9UVNSO8ZP7KqRDc6Qc6K64mjZAGjun77QokEWMiCUkpWcjmIPVDpA81lUB+h/o1w67Pf4pCnzrBrSgXjd4DMotxup1GFSTgNbYMUXJaROsSnnDhupRl+sHtJHRttrAkXBxiwNU6lhWeqlYTQX8FoOOuRKUt3VQG0kHblQSvtZkmsUuiVLRVJATRmo6TYCw/0EvaGoUCnLi3Vd6LBXGk0aGKFE0bpYRJ0ENuP0YvVOhoY6MJ7ZFQMzIvMHPS50rBpgQwuoRusOn0QHAZ4zobBYMkYvC6BSDyok8RQSCMh9w2xJvL3hTsfIdaGM2LvCuhk5PVaADSPZyMRFKIv9irzH8yfINrtDprEn73sEWWGxze446BjERMntUlnLxy90FHOLv9uvxLVECrR6/Hp15EbHSGaU5kr5NqOnVa1wQk/QUFtgz8y7tJx09qUq7MqlNoEOax4RE2CfS4JOX9E/9h3UJSKMSQE46RjGvswn6Jxz4t7t25JOe7dUz3gPc4pOB9IdPX71dgGILGgaOj2rFE8mIcaGu1Mif2r0tbQbt9w3uLtrOenggCUubhH7khLjC+t0kP28Io1eqeMMe0IHj7RpsgckTrDfmzEeHbcvidb8HoO6uHXEVQM5O7VTZq8zomHGTXfUhUler3CLRkdhK1ioLbHl6fMlX/SAThnPoZUUq7qc1XPICfEOmYWmFNzHijgPqAvKRqc1hg5VKG0UGUGnMZHOoVjzHtC5ixM5GXvlErby0aRokEQVSKMjl1ZbLk73U0KJ0XRIdmujkxB0duE4OkSGfACNiVaZvs959xQ6fYB4GRSvshZfDVPRoY474Wje4zOsW0c2oFp1JSkqEWVlacQohUMt3STxpIiJD4E1DI074hLfFQGPB3Ta1FvSQJTlwFPTCfC6st4+fiDjDc0i0Vhtv9PYLZXquVzuIGdantdJJwXU7HQ0HXawKFHZSw1L/foB7jhnBmajA+xwVDqNplzre7QwM5PulG2nf/Bwy7w5iQe53SFVmUSnbavvBMbQKWrmT6Wza9W2qB8sVCJ6HUh2vKjdoeFN2Up5snAW3SF06g46IuIxAglgBSPNXS1JtPIFJx36XHg0HatTDD1bTOrZp9Lx4nQChjJSckJnppWFbbqTTlt0LOmAQkpLn8frDg/Ap6AD0X5SRqWG7NhDOvpt3JvFKnM6WmMsbbvugERdjtq5BNx1Z882XicdxHIqydi5shoe0GF9W/dxNjp1nQ5pYNHhQWChLp7Bb+rVDxvFzl6l0u0sSgdqcA7aw2K4U8FyQONUj+jQgogwzGWHDxrvs+7a6UAWqiq6g4Z8XrTWkZAlqeZidJTICg87nJEDiZcXpAMtn0V7b7BMwmBuEGktx+ZZZMdGD9ssn5XLsklkZK0j2WVvBjTPWoQOtUR9kf0YYZYZsj2UwsGCsbJGB3cOxcYCtYdqIDaJjmnPPEBcNC+zPBI02K1ksSavkpLPi9JpilSPWktLreMe0jFoDRhCWW8PZIAeh42lw8otKp2W0MgS64coOrtSBVibTFY2PzcdWebahUilI09jeeLRyfzkCS+W4qhVAZvdYVGvRWffiuch7ajC3QYeHB1zoscMGwsclRxgT6XDX1Ho2Kyfgw5JNlmxusvq6yLizVqxsswzZBqjPZqCTo4Vu4Siy2lNSacBkFaAIq+ICdLoIGNwOhFFywjGhppJzEyHFfLpM3Go0WmKUMELOmzHRmqqXMdgGjrYLMehiscyOyz1Zp6FfjQ0OrBwMD0dl5UF4neF9Uc02xLZLq2TceWdkw6wneamW31toTw9raQ7vr5DlhZQrr0nrAHFpvpdiw7xbHKDeU67A9Bd/kRS3fLBwzWtNTC/2HUHW4ikyC3qcesHqMfTIcVE5Yetyd4D70NsbGRkvUfcSHqvEwejM4np6IgY0yhIjSDYI4tnEsBx9ous3YoMryLT0zEadAuDoeB1OTKLJh0uolaZPdXiykOWbbZvyG25+XwWlJfqUKvMBks3bIyZ6Ah7JR8Ju2MEtH10lJL3cw8IyzOBDsGT5SEeyA4Nsej73BSI4Ix43jgr2uA5dMsy+52JTkDx6Clxf8yMmCRIDA2rY0/pkLJanRlm/NESjmtMBYNH7Eay2MwWCtlMWCwrWnMXFx7KqLNfycbxRRKVtsioF6HTlffHDLdIv9lmqmcIlfRgZdl1h0f95KOOuJvUo0GNTsAqHPSSOVOtHgyBMAVqOmSY9X6/LPbbxRbVnCtLnDCgzx70+3U+ACPJo8+5s1AAbPtZgFuJjrwhKdv5HUt3eFRDb1Opx/GopYMASWalk0XieIoRUNsZw64Sbut0AiN1JyDoIKRUGWS/dEKZ+lLokMLprrzTFTe7I1qKQn2iI8IZDoYO1cxYxCHMBLg+yhakUalAEyLDjY5Td6CTDoyXFG2VfZtNZpGMaem4Rj9hrt9JpbpHWORk1JNgxzwZHcNQ6CDAt3lLdIfbMoRMQQ6svW7qzSraHBicdoFsrRia7sDRusPpiB0bdt8SdUV7+BcMR+wMTm+VHU/Jn5oldJSW9AeOmPTjNJzLmvxxw647NKoG3bJibwjFYVbrkWQpVhNurIpxmZJZ+1lQnKp0xsowLl45FOEvfjK7ayjgyattEjYUTD7eeekASSdX0OmAosRTpKevs6Lkr+sOFXI6DxTC1jlVvGK6UN9soW69qO4bmKkWoiXz5Ax0xIaG1B26M7ZfV/oNtCuI1gGG4m5Ox8dFshkmLb3YhY1PRgqtDKAWf6Qe52p1iTTpzh05iFxsl3PJg/qw0yLnb7XTsNTag0Il1S8ncwf13U6XnfrAH6xn5QydvHYBqHcUKq8k+JF7zgg1w4flXC5XLqUqCRmisfHOzUbVF52O/SGEzlflc8qhdBQvsPNXCIpkVe2ENinw0+hQu5QWibl9D9xGAW2XRtq19GHOKtK0QYBGvcJuuvrQtY31mrJvqzfmn6H6hGMuoo1YN9qYnMNQFAgAcZpBVucgsN9pb2T2Pp2YxrfwYpRKz0r3XvY85nozv2V9dMB1pyPeN/Ktylqac1T+kpXcSJerruGic8jXS0fvQ18PwgXYloLqZJxd8beoz0HNIOgtlUc2a6R4Pt5O7dbWEjrtjcv1bCZPXub/ARVGKK+hXfH6AAAAAElFTkSuQmCC;" parent="1" vertex="1">
          <mxGeometry x="1305.08" y="838" width="144.92" height="90" as="geometry" />
        </mxCell>
        <mxCell id="GygV4am77YOdZEN7_f4k-152" value="" style="endArrow=classic;html=1;rounded=0;exitX=1;exitY=0.5;exitDx=0;exitDy=0;entryX=0;entryY=0.5;entryDx=0;entryDy=0;" parent="1" source="GygV4am77YOdZEN7_f4k-149" target="GygV4am77YOdZEN7_f4k-151" edge="1">
          <mxGeometry width="50" height="50" relative="1" as="geometry">
            <mxPoint x="1180" y="1000" as="sourcePoint" />
            <mxPoint x="1230" y="950" as="targetPoint" />
          </mxGeometry>
        </mxCell>
        <mxCell id="GygV4am77YOdZEN7_f4k-155" value="" style="shape=image;verticalLabelPosition=bottom;labelBackgroundColor=default;verticalAlign=top;aspect=fixed;imageAspect=0;image=https://blog.kakaocdn.net/dn/bGcOJq/btrTzvThafo/AuHvinT0LOSKklrGQUn0s1/img.png;" parent="1" vertex="1">
          <mxGeometry x="831" y="720" width="140" height="70" as="geometry" />
        </mxCell>
        <mxCell id="GygV4am77YOdZEN7_f4k-157" value="Monitoring&lt;br style=&quot;font-size: 20px;&quot;&gt;Pipeline" style="text;html=1;align=center;verticalAlign=middle;resizable=0;points=[];autosize=1;strokeColor=none;fillColor=none;fontSize=20;" parent="1" vertex="1">
          <mxGeometry x="709.38" y="790" width="120" height="60" as="geometry" />
        </mxCell>
        <mxCell id="GygV4am77YOdZEN7_f4k-158" value="Logging&lt;br&gt;Pipeline" style="text;html=1;align=center;verticalAlign=middle;resizable=0;points=[];autosize=1;strokeColor=none;fillColor=none;fontSize=20;" parent="1" vertex="1">
          <mxGeometry x="1315" y="730" width="90" height="60" as="geometry" />
        </mxCell>
        <mxCell id="Zcb99IPE-UerZcN2fVdD-2" value="" style="edgeStyle=orthogonalEdgeStyle;rounded=0;orthogonalLoop=1;jettySize=auto;html=1;endArrow=none;endFill=0;" edge="1" parent="1" source="GygV4am77YOdZEN7_f4k-64" target="GygV4am77YOdZEN7_f4k-126">
          <mxGeometry relative="1" as="geometry">
            <mxPoint x="807" y="80" as="sourcePoint" />
            <mxPoint x="1050" y="205" as="targetPoint" />
            <Array as="points">
              <mxPoint x="1047" y="80" />
            </Array>
          </mxGeometry>
        </mxCell>
        <mxCell id="Zcb99IPE-UerZcN2fVdD-6" style="edgeStyle=orthogonalEdgeStyle;rounded=0;orthogonalLoop=1;jettySize=auto;html=1;endArrow=none;endFill=0;" edge="1" parent="1" source="GygV4am77YOdZEN7_f4k-126" target="Zcb99IPE-UerZcN2fVdD-1">
          <mxGeometry relative="1" as="geometry">
            <Array as="points">
              <mxPoint x="1047" y="204" />
              <mxPoint x="1047" y="204" />
            </Array>
          </mxGeometry>
        </mxCell>
        <mxCell id="GygV4am77YOdZEN7_f4k-126" value="Application Load Balancer" style="sketch=0;outlineConnect=0;fontColor=#232F3E;gradientColor=none;strokeColor=#ffffff;fillColor=#232F3E;dashed=0;verticalLabelPosition=middle;verticalAlign=bottom;align=center;html=1;whiteSpace=wrap;fontSize=10;fontStyle=1;spacing=3;shape=mxgraph.aws4.productIcon;prIcon=mxgraph.aws4.application_load_balancer;" parent="1" vertex="1">
          <mxGeometry x="1027" y="95" width="40" height="80" as="geometry" />
        </mxCell>
      </root>
    </mxGraphModel>
  </diagram>
</mxfile>
